<svg xmlns="http://www.w3.org/2000/svg" xmlns:xlink="http://www.w3.org/1999/xlink" width="600" zoomAndPan="magnify" viewBox="0 0 450 225" height="300" preserveAspectRatio="xMidYMid meet" version="1.2"><defs><clipPath id="03eafb7c85"><path d="M 43 63.015625 L 47 63.015625 L 47 81 L 43 81 Z M 43 63.015625 "/></clipPath><clipPath id="fa633c10f8"><path d="M 8.167969 104 L 26 104 L 26 111 L 8.167969 111 Z M 8.167969 104 "/></clipPath></defs><g id="c55f01e520"><path style=" stroke:none;fill-rule:nonzero;fill:#ffd013;fill-opacity:1;" d="M 44.546875 81.089844 C 51.152344 78.152344 73.808594 84.660156 78.445312 92.507812 C 83.085938 100.351562 83.445312 105.714844 80.589844 113.570312 C 77.734375 121.425781 70.628906 127.128906 63.480469 128.195312 C 56.328125 129.261719 45.976562 131.402344 39.550781 123.558594 C 33.121094 115.710938 30.625 114.988281 30.273438 111.777344 C 29.921875 108.570312 28.132812 98.582031 32.769531 91.441406 C 37.40625 84.296875 38.121094 83.945312 44.546875 81.089844 Z M 44.546875 81.089844 "/><path style=" stroke:none;fill-rule:nonzero;fill:#ffffff;fill-opacity:1;" d="M 77.945312 97.40625 C 77.003906 93.441406 74.1875 89.992188 70.714844 87.910156 C 66.3125 85.277344 61.003906 84.601562 55.945312 84.835938 C 51.597656 85.03125 47.269531 85.8125 43.261719 87.539062 C 35.921875 90.703125 30.292969 97.621094 30.898438 105.90625 C 31.058594 108.003906 31.628906 110.066406 32.714844 111.863281 C 34 113.960938 35.835938 115.472656 37.8125 116.875 C 41.675781 119.597656 46.683594 123.9375 45.257812 129.074219 C 45.0625 129.039062 44.867188 129.003906 44.652344 128.96875 C 43.246094 128.71875 42.765625 131.171875 44.1875 131.476562 C 48.320312 132.347656 52.578125 132.738281 56.800781 132.398438 C 57.515625 132.347656 58.40625 131.867188 58.332031 130.996094 C 57.941406 126.320312 59.617188 121.625 63.144531 118.460938 C 64.996094 116.804688 67.167969 115.578125 69.21875 114.175781 C 71.105469 112.875 72.832031 111.4375 74.3125 109.691406 C 77.269531 106.332031 78.996094 101.871094 77.945312 97.40625 Z M 71.890625 108.09375 C 68.453125 111.933594 63.355469 113.695312 59.9375 117.535156 C 56.945312 120.894531 55.410156 125.179688 55.410156 129.609375 C 52.3125 129.785156 49.246094 129.679688 46.167969 129.234375 C 47.269531 126.175781 46.414062 122.726562 44.597656 120.007812 C 43.351562 118.140625 41.695312 116.699219 39.949219 115.3125 C 38.257812 113.980469 36.441406 112.664062 35.316406 110.761719 C 31.488281 104.304688 35.03125 96.125 40.769531 92.195312 C 44.117188 89.902344 48.109375 88.691406 52.082031 88.089844 C 56.660156 87.394531 61.609375 87.394531 66.046875 88.90625 C 69.839844 90.203125 73.296875 92.90625 74.738281 96.75 C 76.253906 100.800781 74.667969 105 71.890625 108.09375 Z M 71.890625 108.09375 "/><path style=" stroke:none;fill-rule:nonzero;fill:#ffffff;fill-opacity:1;" d="M 57.601562 110.617188 C 56.015625 110.386719 55.179688 111.683594 54.628906 112.945312 C 54.609375 112.929688 54.609375 112.929688 54.59375 112.910156 C 56 110.332031 56.835938 106.757812 54.914062 104.410156 C 54.539062 103.949219 53.863281 103.984375 53.433594 104.324219 C 52.1875 105.300781 51.992188 106.953125 51.847656 108.449219 C 51.707031 109.835938 51.742188 111.277344 52.277344 112.554688 C 52.097656 112.824219 51.921875 113.070312 51.707031 113.304688 C 51.136719 111.0625 49.640625 108.734375 47.058594 109.890625 C 44.707031 110.957031 44.457031 114.40625 46.453125 115.917969 C 47.539062 116.734375 48.75 116.929688 49.925781 116.699219 C 50.050781 119.847656 49.550781 122.871094 48.855469 125.925781 C 48.679688 126.675781 49.65625 126.976562 49.976562 126.285156 C 50.015625 126.210938 50.03125 126.160156 50.066406 126.085938 C 50.28125 126.90625 51.652344 127.171875 51.9375 126.160156 C 52.5625 123.863281 53.257812 121.589844 54.003906 119.332031 C 54.359375 118.28125 54.71875 117.234375 55.089844 116.183594 C 55.199219 115.882812 55.304688 115.5625 55.410156 115.242188 C 55.660156 115.277344 55.910156 115.292969 56.175781 115.277344 C 57.441406 115.1875 58.691406 114.40625 59.0625 113.160156 C 59.402344 112.074219 58.851562 110.796875 57.601562 110.617188 Z M 53.84375 107.433594 C 53.914062 108.128906 53.828125 108.859375 53.628906 109.570312 C 53.648438 109.355469 53.648438 109.140625 53.683594 108.929688 C 53.71875 108.5 53.738281 107.949219 53.84375 107.433594 Z M 47.589844 112.929688 C 47.839844 111.96875 48.589844 111.914062 49.125 112.734375 C 49.460938 113.25 49.640625 113.855469 49.765625 114.476562 C 49.640625 114.496094 49.496094 114.511719 49.355469 114.511719 C 48.410156 114.566406 47.304688 114.03125 47.589844 112.929688 Z M 51.652344 120.734375 C 51.921875 119.117188 52.027344 117.464844 52.007812 115.863281 C 52.613281 115.472656 53.167969 114.972656 53.613281 114.421875 C 53.703125 114.511719 53.808594 114.582031 53.898438 114.652344 C 53.097656 116.644531 52.347656 118.691406 51.652344 120.734375 Z M 57.371094 112.894531 C 57.191406 113.339844 56.515625 113.585938 56.035156 113.585938 C 56.140625 113.355469 56.25 113.144531 56.355469 112.929688 C 56.480469 112.628906 56.675781 112.378906 56.960938 112.183594 C 57.515625 112.253906 57.65625 112.484375 57.371094 112.894531 Z M 57.371094 112.894531 "/><path style=" stroke:none;fill-rule:nonzero;fill:#ffffff;fill-opacity:1;" d="M 56.214844 134.710938 C 55.269531 134.320312 54.164062 134.355469 53.148438 134.304688 C 52.027344 134.25 50.90625 134.230469 49.78125 134.285156 C 47.789062 134.375 45.578125 134.410156 43.707031 135.121094 C 42.726562 135.496094 43.28125 136.773438 44.082031 136.898438 C 46.042969 137.183594 48.109375 136.953125 50.101562 137.09375 C 51.066406 137.164062 52.042969 137.238281 53.007812 137.359375 C 54.039062 137.484375 55.019531 137.734375 56.070312 137.59375 C 57.675781 137.378906 57.441406 135.226562 56.214844 134.710938 Z M 56.214844 134.710938 "/><path style=" stroke:none;fill-rule:nonzero;fill:#ffffff;fill-opacity:1;" d="M 53.503906 139.085938 C 52.207031 138.429688 50.351562 138.695312 48.945312 138.695312 C 47.269531 138.695312 45.632812 138.820312 43.976562 139.050781 C 42.960938 139.191406 43.28125 140.527344 44.117188 140.6875 C 45.3125 140.898438 46.488281 141.09375 47.679688 141.273438 C 47.289062 141.929688 47.09375 142.695312 47.21875 143.390625 C 47.699219 145.984375 50.941406 147.015625 53.042969 145.628906 C 55.054688 144.261719 56.125 140.382812 53.503906 139.085938 Z M 50.585938 142.820312 C 49.960938 142.730469 50.671875 142.214844 51.066406 142.109375 C 51.3125 142.039062 51.492188 141.914062 51.636719 141.753906 C 51.6875 141.753906 51.722656 141.734375 51.707031 141.71875 C 51.992188 142.339844 51.03125 142.890625 50.585938 142.820312 Z M 50.585938 142.820312 "/><g clip-rule="nonzero" clip-path="url(#03eafb7c85)"><path style=" stroke:none;fill-rule:nonzero;fill:#ffffff;fill-opacity:1;" d="M 44.207031 79.839844 C 44.457031 81.171875 46.433594 80.957031 46.523438 79.640625 C 46.71875 77.046875 46.238281 74.308594 46.042969 71.710938 C 45.84375 69.152344 45.738281 66.574219 45.382812 64.03125 C 45.238281 63.015625 43.617188 63.160156 43.601562 64.171875 C 43.53125 66.804688 43.726562 69.453125 43.816406 72.085938 C 43.902344 74.628906 43.742188 77.332031 44.207031 79.839844 Z M 44.207031 79.839844 "/></g><path style=" stroke:none;fill-rule:nonzero;fill:#ffffff;fill-opacity:1;" d="M 26.464844 89.636719 C 25.289062 88.976562 24.148438 88.285156 23.027344 87.539062 C 20.816406 86.078125 18.714844 84.445312 16.738281 82.683594 C 15.652344 81.703125 13.90625 83.179688 14.992188 84.230469 C 17.003906 86.167969 19.125 87.964844 21.40625 89.566406 C 22.492188 90.347656 23.613281 91.074219 24.769531 91.769531 C 25.945312 92.480469 27.210938 93.421875 28.601562 93.53125 C 29.652344 93.617188 30.222656 92.285156 29.546875 91.539062 C 28.761719 90.648438 27.496094 90.222656 26.464844 89.636719 Z M 26.464844 89.636719 "/><g clip-rule="nonzero" clip-path="url(#fa633c10f8)"><path style=" stroke:none;fill-rule:nonzero;fill:#ffffff;fill-opacity:1;" d="M 24.628906 107.078125 C 25.894531 106.722656 25.804688 104.839844 24.433594 104.769531 C 21.8125 104.609375 18.980469 105.40625 16.453125 106.066406 C 15.1875 106.402344 13.957031 106.757812 12.730469 107.1875 C 11.480469 107.613281 10.144531 107.984375 9.078125 108.769531 C 8.203125 109.410156 9.078125 110.546875 9.933594 110.441406 C 11.125 110.296875 12.285156 109.765625 13.441406 109.410156 C 14.6875 109.035156 15.9375 108.699219 17.199219 108.414062 C 19.625 107.863281 22.207031 107.753906 24.628906 107.078125 Z M 24.628906 107.078125 "/></g><path style=" stroke:none;fill-rule:nonzero;fill:#ffffff;fill-opacity:1;" d="M 69.199219 81.082031 C 71.445312 77.136719 74.097656 73.597656 77.519531 70.589844 C 78.910156 69.363281 76.984375 67.214844 75.613281 68.441406 C 72.03125 71.675781 69.074219 75.660156 67.292969 80.15625 C 66.867188 81.277344 68.59375 82.132812 69.199219 81.082031 Z M 69.199219 81.082031 "/><path style=" stroke:none;fill-rule:nonzero;fill:#ffffff;fill-opacity:1;" d="M 96.632812 95.539062 C 94.015625 95.449219 91.34375 96.375 88.921875 97.265625 C 86.40625 98.1875 84.109375 99.449219 81.972656 101.035156 C 81.027344 101.726562 82.097656 103.238281 83.113281 102.703125 C 85.25 101.550781 87.496094 100.519531 89.8125 99.734375 C 92.125 98.953125 94.53125 98.703125 96.847656 97.992188 C 98.128906 97.601562 98.113281 95.59375 96.632812 95.539062 Z M 96.632812 95.539062 "/><path style=" stroke:none;fill-rule:nonzero;fill:#ffffff;fill-opacity:1;" d="M 25.679688 120.824219 C 22.582031 123.9375 19.785156 127.316406 17.34375 130.941406 C 16.292969 132.488281 18.804688 134.125 19.765625 132.542969 C 21.902344 128.949219 24.34375 125.554688 27.105469 122.425781 C 27.996094 121.429688 26.675781 119.828125 25.679688 120.824219 Z M 25.679688 120.824219 "/><path style=" stroke:none;fill-rule:nonzero;fill:#ffffff;fill-opacity:1;" d="M 89.242188 129.699219 C 87.351562 128.222656 85.195312 127.03125 83.164062 125.75 C 81.152344 124.46875 79.121094 123.011719 76.964844 121.960938 C 76.09375 121.535156 74.8125 122.621094 75.71875 123.402344 C 77.535156 124.984375 79.640625 126.285156 81.617188 127.652344 C 83.648438 129.058594 85.660156 130.640625 87.816406 131.847656 C 89.277344 132.648438 90.558594 130.710938 89.242188 129.699219 Z M 89.242188 129.699219 "/><g style="fill:#ffffff;fill-opacity:1;"><g transform="translate(115.176325, 111.804215)"><path style="stroke:none" d="M 10.296875 -15.53125 C 10.710938 -15.488281 11.050781 -15.332031 11.3125 -15.0625 C 11.570312 -14.800781 11.742188 -14.5 11.828125 -14.15625 C 11.921875 -13.8125 11.921875 -13.476562 11.828125 -13.15625 C 11.742188 -12.832031 11.570312 -12.570312 11.3125 -12.375 C 11.050781 -12.175781 10.710938 -12.109375 10.296875 -12.171875 C 9.585938 -12.265625 8.863281 -12.332031 8.125 -12.375 C 8.019531 -10.71875 7.914062 -9.066406 7.8125 -7.421875 C 7.71875 -5.785156 7.617188 -4.144531 7.515625 -2.5 C 7.503906 -2.0625 7.375 -1.710938 7.125 -1.453125 C 6.875 -1.191406 6.578125 -1.019531 6.234375 -0.9375 C 5.898438 -0.851562 5.566406 -0.851562 5.234375 -0.9375 C 4.898438 -1.019531 4.628906 -1.191406 4.421875 -1.453125 C 4.210938 -1.710938 4.113281 -2.0625 4.125 -2.5 C 4.238281 -4.144531 4.34375 -5.796875 4.4375 -7.453125 C 4.53125 -9.109375 4.628906 -10.753906 4.734375 -12.390625 C 4.054688 -12.378906 3.394531 -12.335938 2.75 -12.265625 C 2.3125 -12.234375 1.960938 -12.3125 1.703125 -12.5 C 1.441406 -12.695312 1.269531 -12.960938 1.1875 -13.296875 C 1.101562 -13.628906 1.101562 -13.96875 1.1875 -14.3125 C 1.28125 -14.65625 1.453125 -14.953125 1.703125 -15.203125 C 1.960938 -15.453125 2.3125 -15.597656 2.75 -15.640625 C 5.269531 -15.898438 7.785156 -15.863281 10.296875 -15.53125 Z M 10.296875 -15.53125 "/></g></g><g style="fill:#ffffff;fill-opacity:1;"><g transform="translate(128.200442, 111.804215)"><path style="stroke:none" d="M 9.6875 -15.78125 C 9.757812 -16.207031 9.929688 -16.515625 10.203125 -16.703125 C 10.472656 -16.898438 10.773438 -17 11.109375 -17 C 11.453125 -17 11.773438 -16.90625 12.078125 -16.71875 C 12.390625 -16.539062 12.632812 -16.296875 12.8125 -15.984375 C 12.988281 -15.671875 13.03125 -15.300781 12.9375 -14.875 C 12.125 -10.71875 11.566406 -6.535156 11.265625 -2.328125 C 11.234375 -1.898438 11.09375 -1.554688 10.84375 -1.296875 C 10.59375 -1.035156 10.296875 -0.859375 9.953125 -0.765625 C 9.609375 -0.671875 9.273438 -0.671875 8.953125 -0.765625 C 8.628906 -0.859375 8.359375 -1.03125 8.140625 -1.28125 C 7.929688 -1.539062 7.84375 -1.890625 7.875 -2.328125 C 7.925781 -3.035156 7.984375 -3.742188 8.046875 -4.453125 C 8.117188 -5.160156 8.191406 -5.863281 8.265625 -6.5625 L 5.171875 -6.5625 C 5.066406 -5.664062 4.960938 -4.769531 4.859375 -3.875 C 4.753906 -2.976562 4.644531 -2.085938 4.53125 -1.203125 C 4.476562 -0.765625 4.320312 -0.414062 4.0625 -0.15625 C 3.8125 0.09375 3.507812 0.257812 3.15625 0.34375 C 2.8125 0.425781 2.472656 0.425781 2.140625 0.34375 C 1.804688 0.257812 1.539062 0.09375 1.34375 -0.15625 C 1.15625 -0.414062 1.09375 -0.765625 1.15625 -1.203125 C 1.289062 -2.429688 1.429688 -3.664062 1.578125 -4.90625 C 1.734375 -6.15625 1.878906 -7.398438 2.015625 -8.640625 C 2.085938 -9.234375 2.15625 -9.828125 2.21875 -10.421875 C 2.289062 -11.023438 2.363281 -11.628906 2.4375 -12.234375 C 2.5 -12.765625 2.546875 -13.320312 2.578125 -13.90625 C 2.617188 -14.488281 2.738281 -15.03125 2.9375 -15.53125 C 3.082031 -15.9375 3.3125 -16.234375 3.625 -16.421875 C 3.9375 -16.609375 4.265625 -16.695312 4.609375 -16.6875 C 4.960938 -16.6875 5.289062 -16.597656 5.59375 -16.421875 C 5.894531 -16.253906 6.109375 -16.019531 6.234375 -15.71875 C 6.367188 -15.414062 6.351562 -15.050781 6.1875 -14.625 C 6.007812 -14.144531 5.90625 -13.613281 5.875 -13.03125 C 5.84375 -12.457031 5.796875 -11.914062 5.734375 -11.40625 C 5.703125 -11.164062 5.671875 -10.921875 5.640625 -10.671875 C 5.609375 -10.429688 5.578125 -10.191406 5.546875 -9.953125 L 8.6875 -9.953125 C 8.820312 -10.921875 8.972656 -11.894531 9.140625 -12.875 C 9.304688 -13.851562 9.488281 -14.820312 9.6875 -15.78125 Z M 9.6875 -15.78125 "/></g></g><g style="fill:#ffffff;fill-opacity:1;"><g transform="translate(142.308023, 111.804215)"><path style="stroke:none" d="M 9.421875 -4.765625 C 9.847656 -4.742188 10.191406 -4.613281 10.453125 -4.375 C 10.722656 -4.132812 10.898438 -3.84375 10.984375 -3.5 C 11.066406 -3.164062 11.066406 -2.832031 10.984375 -2.5 C 10.898438 -2.175781 10.722656 -1.90625 10.453125 -1.6875 C 10.191406 -1.46875 9.847656 -1.363281 9.421875 -1.375 C 8.390625 -1.414062 7.363281 -1.410156 6.34375 -1.359375 C 5.320312 -1.304688 4.300781 -1.195312 3.28125 -1.03125 C 2.957031 -0.988281 2.625 -1.023438 2.28125 -1.140625 C 1.9375 -1.253906 1.644531 -1.4375 1.40625 -1.6875 C 1.175781 -1.945312 1.09375 -2.28125 1.15625 -2.6875 C 1.40625 -4.757812 1.6875 -6.832031 2 -8.90625 C 2.3125 -10.988281 2.644531 -13.070312 3 -15.15625 C 3.050781 -15.40625 3.144531 -15.625 3.28125 -15.8125 C 3.394531 -16.019531 3.5625 -16.191406 3.78125 -16.328125 C 4.007812 -16.472656 4.289062 -16.554688 4.625 -16.578125 C 6.25 -16.617188 7.875 -16.585938 9.5 -16.484375 C 9.9375 -16.453125 10.285156 -16.3125 10.546875 -16.0625 C 10.816406 -15.8125 10.992188 -15.515625 11.078125 -15.171875 C 11.160156 -14.835938 11.160156 -14.503906 11.078125 -14.171875 C 10.992188 -13.847656 10.816406 -13.578125 10.546875 -13.359375 C 10.285156 -13.148438 9.9375 -13.0625 9.5 -13.09375 C 8.382812 -13.164062 7.25 -13.203125 6.09375 -13.203125 C 6.019531 -12.765625 5.941406 -12.328125 5.859375 -11.890625 C 5.785156 -11.460938 5.722656 -11.03125 5.671875 -10.59375 C 6.285156 -10.570312 6.878906 -10.53125 7.453125 -10.46875 C 7.898438 -10.425781 8.289062 -10.257812 8.625 -9.96875 C 8.96875 -9.675781 9.140625 -9.28125 9.140625 -8.78125 C 9.140625 -8.5 9.0625 -8.222656 8.90625 -7.953125 C 8.75 -7.679688 8.539062 -7.460938 8.28125 -7.296875 C 8.03125 -7.128906 7.753906 -7.0625 7.453125 -7.09375 C 6.679688 -7.164062 5.910156 -7.203125 5.140625 -7.203125 C 5.085938 -6.773438 5.03125 -6.34375 4.96875 -5.90625 C 4.90625 -5.476562 4.84375 -5.050781 4.78125 -4.625 C 5.550781 -4.695312 6.316406 -4.742188 7.078125 -4.765625 C 7.847656 -4.796875 8.628906 -4.796875 9.421875 -4.765625 Z M 9.421875 -4.765625 "/></g></g><g style="fill:#ffffff;fill-opacity:1;"><g transform="translate(154.564692, 111.804215)"><path style="stroke:none" d=""/></g></g><g style="fill:#ffffff;fill-opacity:1;"><g transform="translate(161.426621, 111.804215)"><path style="stroke:none" d="M 11.078125 -13.4375 C 11.097656 -12.570312 11.109375 -11.632812 11.109375 -10.625 C 11.109375 -9.625 11.046875 -8.617188 10.921875 -7.609375 C 10.804688 -6.597656 10.582031 -5.644531 10.25 -4.75 C 9.914062 -3.851562 9.4375 -3.082031 8.8125 -2.4375 C 8.15625 -1.769531 7.453125 -1.347656 6.703125 -1.171875 C 5.953125 -1.003906 5.210938 -1.039062 4.484375 -1.28125 C 3.753906 -1.519531 3.101562 -1.929688 2.53125 -2.515625 C 1.957031 -3.097656 1.523438 -3.8125 1.234375 -4.65625 C 1.085938 -5.09375 1.078125 -5.472656 1.203125 -5.796875 C 1.335938 -6.128906 1.550781 -6.382812 1.84375 -6.5625 C 2.132812 -6.75 2.457031 -6.84375 2.8125 -6.84375 C 3.175781 -6.851562 3.515625 -6.757812 3.828125 -6.5625 C 4.140625 -6.375 4.363281 -6.0625 4.5 -5.625 C 4.632812 -5.226562 4.875 -4.953125 5.21875 -4.796875 C 5.570312 -4.640625 5.925781 -4.675781 6.28125 -4.90625 C 6.5625 -5.082031 6.769531 -5.351562 6.90625 -5.71875 C 7.039062 -6.09375 7.144531 -6.445312 7.21875 -6.78125 C 7.488281 -7.863281 7.644531 -8.960938 7.6875 -10.078125 C 7.726562 -11.203125 7.734375 -12.320312 7.703125 -13.4375 C 7.703125 -13.90625 7.8125 -14.273438 8.03125 -14.546875 C 8.257812 -14.828125 8.539062 -15.015625 8.875 -15.109375 C 9.207031 -15.210938 9.539062 -15.210938 9.875 -15.109375 C 10.21875 -15.015625 10.503906 -14.828125 10.734375 -14.546875 C 10.960938 -14.273438 11.078125 -13.90625 11.078125 -13.4375 Z M 11.078125 -13.4375 "/></g></g><g style="fill:#ffffff;fill-opacity:1;"><g transform="translate(173.683289, 111.804215)"><path style="stroke:none" d="M 12.546875 -13.796875 C 12.910156 -13.210938 13.160156 -12.550781 13.296875 -11.8125 C 13.429688 -11.082031 13.488281 -10.34375 13.46875 -9.59375 C 13.457031 -8.851562 13.398438 -8.160156 13.296875 -7.515625 C 13.148438 -6.523438 12.84375 -5.582031 12.375 -4.6875 C 11.90625 -3.800781 11.28125 -3.035156 10.5 -2.390625 C 9.75 -1.773438 8.875 -1.320312 7.875 -1.03125 C 6.882812 -0.75 5.914062 -0.757812 4.96875 -1.0625 C 4.332031 -1.257812 3.78125 -1.582031 3.3125 -2.03125 C 2.851562 -2.476562 2.460938 -2.992188 2.140625 -3.578125 C 1.828125 -4.160156 1.59375 -4.75 1.4375 -5.34375 C 1.257812 -6.007812 1.15625 -6.773438 1.125 -7.640625 C 1.09375 -8.503906 1.148438 -9.390625 1.296875 -10.296875 C 1.453125 -11.203125 1.703125 -12.046875 2.046875 -12.828125 C 2.398438 -13.609375 2.867188 -14.253906 3.453125 -14.765625 C 4.054688 -15.378906 4.78125 -15.8125 5.625 -16.0625 C 6.46875 -16.320312 7.332031 -16.410156 8.21875 -16.328125 C 9.101562 -16.253906 9.929688 -16 10.703125 -15.5625 C 11.472656 -15.132812 12.085938 -14.546875 12.546875 -13.796875 Z M 8.4375 -5.015625 C 8.957031 -5.492188 9.335938 -6.050781 9.578125 -6.6875 C 9.828125 -7.332031 9.984375 -8.003906 10.046875 -8.703125 C 10.109375 -9.398438 10.09375 -10.082031 10 -10.75 C 9.90625 -11.40625 9.644531 -11.941406 9.21875 -12.359375 C 8.789062 -12.785156 8.222656 -12.992188 7.515625 -12.984375 C 7.128906 -12.984375 6.75 -12.882812 6.375 -12.6875 C 6.007812 -12.488281 5.707031 -12.234375 5.46875 -11.921875 C 5.195312 -11.546875 5 -11.09375 4.875 -10.5625 C 4.757812 -10.039062 4.671875 -9.550781 4.609375 -9.09375 C 4.472656 -8.09375 4.523438 -7.101562 4.765625 -6.125 C 4.835938 -5.832031 4.9375 -5.539062 5.0625 -5.25 C 5.195312 -4.96875 5.382812 -4.738281 5.625 -4.5625 C 6.007812 -4.269531 6.453125 -4.164062 6.953125 -4.25 C 7.460938 -4.332031 7.90625 -4.535156 8.28125 -4.859375 C 8.332031 -4.898438 8.382812 -4.953125 8.4375 -5.015625 Z M 8.4375 -5.015625 "/></g></g><g style="fill:#ffffff;fill-opacity:1;"><g transform="translate(188.287458, 111.804215)"><path style="stroke:none" d="M 9.125 -15.4375 C 9.164062 -15.875 9.316406 -16.203125 9.578125 -16.421875 C 9.847656 -16.640625 10.148438 -16.765625 10.484375 -16.796875 C 10.828125 -16.828125 11.160156 -16.765625 11.484375 -16.609375 C 11.804688 -16.460938 12.0625 -16.238281 12.25 -15.9375 C 12.4375 -15.632812 12.5 -15.273438 12.4375 -14.859375 C 12.320312 -13.878906 12.207031 -12.84375 12.09375 -11.75 C 11.988281 -10.65625 11.832031 -9.554688 11.625 -8.453125 C 11.425781 -7.359375 11.132812 -6.316406 10.75 -5.328125 C 10.375 -4.335938 9.851562 -3.445312 9.1875 -2.65625 C 8.53125 -1.863281 7.679688 -1.226562 6.640625 -0.75 C 6.242188 -0.5625 5.882812 -0.519531 5.5625 -0.625 C 5.238281 -0.738281 4.976562 -0.929688 4.78125 -1.203125 C 4.59375 -1.484375 4.476562 -1.800781 4.4375 -2.15625 C 4.394531 -2.507812 4.453125 -2.847656 4.609375 -3.171875 C 4.773438 -3.492188 5.050781 -3.738281 5.4375 -3.90625 C 5.945312 -4.144531 6.363281 -4.46875 6.6875 -4.875 C 7.019531 -5.28125 7.28125 -5.734375 7.46875 -6.234375 C 6.851562 -6.023438 6.222656 -5.921875 5.578125 -5.921875 C 4.941406 -5.929688 4.316406 -6.09375 3.703125 -6.40625 C 2.890625 -6.8125 2.28125 -7.382812 1.875 -8.125 C 1.476562 -8.863281 1.242188 -9.671875 1.171875 -10.546875 C 1.097656 -11.429688 1.140625 -12.3125 1.296875 -13.1875 C 1.453125 -14.070312 1.691406 -14.867188 2.015625 -15.578125 C 2.179688 -15.984375 2.421875 -16.257812 2.734375 -16.40625 C 3.046875 -16.550781 3.367188 -16.59375 3.703125 -16.53125 C 4.046875 -16.46875 4.351562 -16.320312 4.625 -16.09375 C 4.894531 -15.875 5.078125 -15.597656 5.171875 -15.265625 C 5.273438 -14.929688 5.242188 -14.5625 5.078125 -14.15625 C 4.960938 -13.894531 4.84375 -13.546875 4.71875 -13.109375 C 4.59375 -12.679688 4.503906 -12.222656 4.453125 -11.734375 C 4.398438 -11.253906 4.421875 -10.8125 4.515625 -10.40625 C 4.609375 -10 4.816406 -9.691406 5.140625 -9.484375 C 5.441406 -9.273438 5.769531 -9.207031 6.125 -9.28125 C 6.476562 -9.351562 6.816406 -9.515625 7.140625 -9.765625 C 7.460938 -10.015625 7.753906 -10.296875 8.015625 -10.609375 C 8.273438 -10.921875 8.476562 -11.207031 8.625 -11.46875 C 8.71875 -12.132812 8.800781 -12.796875 8.875 -13.453125 C 8.945312 -14.117188 9.03125 -14.78125 9.125 -15.4375 Z M 9.125 -15.4375 "/></g></g><g style="fill:#ffffff;fill-opacity:1;"><g transform="translate(201.875879, 111.804215)"><path style="stroke:none" d=""/></g></g><g style="fill:#ffffff;fill-opacity:1;"><g transform="translate(208.737808, 111.804215)"><path style="stroke:none" d="M 12.546875 -14.375 C 12.910156 -13.789062 13.160156 -13.132812 13.296875 -12.40625 C 13.429688 -11.675781 13.488281 -10.9375 13.46875 -10.1875 C 13.457031 -9.445312 13.398438 -8.753906 13.296875 -8.109375 C 13.148438 -7.109375 12.84375 -6.164062 12.375 -5.28125 C 11.90625 -4.394531 11.28125 -3.628906 10.5 -2.984375 C 9.75 -2.359375 8.875 -1.90625 7.875 -1.625 C 6.882812 -1.34375 5.914062 -1.347656 4.96875 -1.640625 C 4.332031 -1.835938 3.78125 -2.160156 3.3125 -2.609375 C 2.851562 -3.066406 2.460938 -3.582031 2.140625 -4.15625 C 1.828125 -4.738281 1.59375 -5.332031 1.4375 -5.9375 C 1.257812 -6.601562 1.15625 -7.367188 1.125 -8.234375 C 1.09375 -9.097656 1.148438 -9.976562 1.296875 -10.875 C 1.453125 -11.78125 1.703125 -12.625 2.046875 -13.40625 C 2.398438 -14.1875 2.867188 -14.835938 3.453125 -15.359375 C 4.054688 -15.972656 4.78125 -16.40625 5.625 -16.65625 C 6.46875 -16.914062 7.332031 -17.003906 8.21875 -16.921875 C 9.101562 -16.835938 9.929688 -16.582031 10.703125 -16.15625 C 11.472656 -15.726562 12.085938 -15.132812 12.546875 -14.375 Z M 8.4375 -5.59375 C 8.957031 -6.082031 9.335938 -6.644531 9.578125 -7.28125 C 9.828125 -7.914062 9.984375 -8.582031 10.046875 -9.28125 C 10.109375 -9.988281 10.09375 -10.671875 10 -11.328125 C 9.90625 -11.992188 9.644531 -12.535156 9.21875 -12.953125 C 8.789062 -13.378906 8.222656 -13.582031 7.515625 -13.5625 C 7.128906 -13.5625 6.75 -13.460938 6.375 -13.265625 C 6.007812 -13.078125 5.707031 -12.828125 5.46875 -12.515625 C 5.195312 -12.128906 5 -11.671875 4.875 -11.140625 C 4.757812 -10.617188 4.671875 -10.132812 4.609375 -9.6875 C 4.472656 -8.675781 4.523438 -7.679688 4.765625 -6.703125 C 4.835938 -6.421875 4.9375 -6.132812 5.0625 -5.84375 C 5.195312 -5.5625 5.382812 -5.328125 5.625 -5.140625 C 6.007812 -4.859375 6.453125 -4.757812 6.953125 -4.84375 C 7.460938 -4.925781 7.90625 -5.125 8.28125 -5.4375 C 8.332031 -5.488281 8.382812 -5.539062 8.4375 -5.59375 Z M 8.4375 -5.59375 "/></g></g><g style="fill:#ffffff;fill-opacity:1;"><g transform="translate(223.36455, 111.804215)"><path style="stroke:none" d="M 10.203125 -15.671875 C 10.640625 -15.734375 11.015625 -15.671875 11.328125 -15.484375 C 11.648438 -15.304688 11.894531 -15.0625 12.0625 -14.75 C 12.238281 -14.445312 12.328125 -14.125 12.328125 -13.78125 C 12.335938 -13.445312 12.242188 -13.148438 12.046875 -12.890625 C 11.859375 -12.640625 11.546875 -12.472656 11.109375 -12.390625 C 10.335938 -12.273438 9.566406 -12.15625 8.796875 -12.03125 C 8.035156 -11.914062 7.269531 -11.796875 6.5 -11.671875 C 6.488281 -11.671875 6.425781 -11.660156 6.3125 -11.640625 C 6.195312 -11.617188 6.070312 -11.597656 5.9375 -11.578125 C 5.9375 -11.472656 5.929688 -11.398438 5.921875 -11.359375 C 5.941406 -11.015625 5.914062 -10.648438 5.84375 -10.265625 C 5.769531 -9.878906 5.710938 -9.515625 5.671875 -9.171875 C 5.671875 -9.109375 5.664062 -9.050781 5.65625 -9 C 5.644531 -8.945312 5.640625 -8.894531 5.640625 -8.84375 C 6.804688 -9.03125 7.957031 -9.128906 9.09375 -9.140625 C 9.53125 -9.140625 9.878906 -9.03125 10.140625 -8.8125 C 10.410156 -8.59375 10.585938 -8.3125 10.671875 -7.96875 C 10.753906 -7.632812 10.753906 -7.296875 10.671875 -6.953125 C 10.585938 -6.617188 10.410156 -6.335938 10.140625 -6.109375 C 9.878906 -5.890625 9.53125 -5.769531 9.09375 -5.75 C 7.789062 -5.738281 6.488281 -5.597656 5.1875 -5.328125 C 5.070312 -4.441406 4.945312 -3.550781 4.8125 -2.65625 C 4.6875 -1.757812 4.554688 -0.867188 4.421875 0.015625 C 4.347656 0.441406 4.179688 0.75 3.921875 0.9375 C 3.671875 1.132812 3.375 1.234375 3.03125 1.234375 C 2.695312 1.234375 2.367188 1.144531 2.046875 0.96875 C 1.734375 0.789062 1.488281 0.539062 1.3125 0.21875 C 1.144531 -0.09375 1.09375 -0.457031 1.15625 -0.875 C 1.457031 -2.757812 1.722656 -4.640625 1.953125 -6.515625 C 2.179688 -8.398438 2.40625 -10.285156 2.625 -12.171875 C 2.707031 -12.984375 2.9375 -13.597656 3.3125 -14.015625 C 3.695312 -14.441406 4.296875 -14.722656 5.109375 -14.859375 C 5.941406 -14.992188 6.785156 -15.128906 7.640625 -15.265625 C 8.503906 -15.398438 9.359375 -15.535156 10.203125 -15.671875 Z M 10.203125 -15.671875 "/></g></g><g style="fill:#ffffff;fill-opacity:1;"><g transform="translate(236.817535, 111.804215)"><path style="stroke:none" d=""/></g></g><g style="fill:#ffffff;fill-opacity:1;"><g transform="translate(243.679464, 111.804215)"><path style="stroke:none" d="M 9.953125 -5.625 C 10.390625 -5.65625 10.734375 -5.566406 10.984375 -5.359375 C 11.242188 -5.160156 11.421875 -4.894531 11.515625 -4.5625 C 11.609375 -4.226562 11.609375 -3.890625 11.515625 -3.546875 C 11.421875 -3.203125 11.242188 -2.90625 10.984375 -2.65625 C 10.722656 -2.40625 10.378906 -2.265625 9.953125 -2.234375 C 8.804688 -2.160156 7.679688 -2.015625 6.578125 -1.796875 C 5.472656 -1.585938 4.375 -1.328125 3.28125 -1.015625 C 2.957031 -0.921875 2.625 -0.9375 2.28125 -1.0625 C 1.9375 -1.195312 1.648438 -1.398438 1.421875 -1.671875 C 1.191406 -1.953125 1.09375 -2.285156 1.125 -2.671875 C 1.3125 -4.429688 1.488281 -6.191406 1.65625 -7.953125 C 1.832031 -9.710938 2.003906 -11.472656 2.171875 -13.234375 C 2.210938 -13.648438 2.359375 -13.988281 2.609375 -14.25 C 2.867188 -14.519531 3.171875 -14.695312 3.515625 -14.78125 C 3.867188 -14.863281 4.207031 -14.863281 4.53125 -14.78125 C 4.851562 -14.695312 5.113281 -14.523438 5.3125 -14.265625 C 5.519531 -14.015625 5.597656 -13.671875 5.546875 -13.234375 C 5.410156 -11.828125 5.273438 -10.425781 5.140625 -9.03125 C 5.003906 -7.644531 4.867188 -6.257812 4.734375 -4.875 C 6.441406 -5.238281 8.179688 -5.488281 9.953125 -5.625 Z M 9.953125 -5.625 "/></g></g><g style="fill:#ffffff;fill-opacity:1;"><g transform="translate(256.387575, 111.804215)"><path style="stroke:none" d="M 9.421875 -4.765625 C 9.847656 -4.742188 10.191406 -4.613281 10.453125 -4.375 C 10.722656 -4.132812 10.898438 -3.84375 10.984375 -3.5 C 11.066406 -3.164062 11.066406 -2.832031 10.984375 -2.5 C 10.898438 -2.175781 10.722656 -1.90625 10.453125 -1.6875 C 10.191406 -1.46875 9.847656 -1.363281 9.421875 -1.375 C 8.390625 -1.414062 7.363281 -1.410156 6.34375 -1.359375 C 5.320312 -1.304688 4.300781 -1.195312 3.28125 -1.03125 C 2.957031 -0.988281 2.625 -1.023438 2.28125 -1.140625 C 1.9375 -1.253906 1.644531 -1.4375 1.40625 -1.6875 C 1.175781 -1.945312 1.09375 -2.28125 1.15625 -2.6875 C 1.40625 -4.757812 1.6875 -6.832031 2 -8.90625 C 2.3125 -10.988281 2.644531 -13.070312 3 -15.15625 C 3.050781 -15.40625 3.144531 -15.625 3.28125 -15.8125 C 3.394531 -16.019531 3.5625 -16.191406 3.78125 -16.328125 C 4.007812 -16.472656 4.289062 -16.554688 4.625 -16.578125 C 6.25 -16.617188 7.875 -16.585938 9.5 -16.484375 C 9.9375 -16.453125 10.285156 -16.3125 10.546875 -16.0625 C 10.816406 -15.8125 10.992188 -15.515625 11.078125 -15.171875 C 11.160156 -14.835938 11.160156 -14.503906 11.078125 -14.171875 C 10.992188 -13.847656 10.816406 -13.578125 10.546875 -13.359375 C 10.285156 -13.148438 9.9375 -13.0625 9.5 -13.09375 C 8.382812 -13.164062 7.25 -13.203125 6.09375 -13.203125 C 6.019531 -12.765625 5.941406 -12.328125 5.859375 -11.890625 C 5.785156 -11.460938 5.722656 -11.03125 5.671875 -10.59375 C 6.285156 -10.570312 6.878906 -10.53125 7.453125 -10.46875 C 7.898438 -10.425781 8.289062 -10.257812 8.625 -9.96875 C 8.96875 -9.675781 9.140625 -9.28125 9.140625 -8.78125 C 9.140625 -8.5 9.0625 -8.222656 8.90625 -7.953125 C 8.75 -7.679688 8.539062 -7.460938 8.28125 -7.296875 C 8.03125 -7.128906 7.753906 -7.0625 7.453125 -7.09375 C 6.679688 -7.164062 5.910156 -7.203125 5.140625 -7.203125 C 5.085938 -6.773438 5.03125 -6.34375 4.96875 -5.90625 C 4.90625 -5.476562 4.84375 -5.050781 4.78125 -4.625 C 5.550781 -4.695312 6.316406 -4.742188 7.078125 -4.765625 C 7.847656 -4.796875 8.628906 -4.796875 9.421875 -4.765625 Z M 9.421875 -4.765625 "/></g></g><g style="fill:#ffffff;fill-opacity:1;"><g transform="translate(268.644244, 111.804215)"><path style="stroke:none" d="M 11.703125 -9.859375 C 11.742188 -8.367188 11.78125 -6.867188 11.8125 -5.359375 C 11.84375 -3.859375 11.878906 -2.359375 11.921875 -0.859375 C 11.929688 -0.421875 11.820312 -0.0703125 11.59375 0.1875 C 11.375 0.457031 11.097656 0.628906 10.765625 0.703125 C 10.429688 0.785156 10.09375 0.785156 9.75 0.703125 C 9.414062 0.628906 9.132812 0.457031 8.90625 0.1875 C 8.675781 -0.0703125 8.550781 -0.421875 8.53125 -0.859375 C 8.519531 -1.304688 8.507812 -1.753906 8.5 -2.203125 C 8.488281 -2.648438 8.476562 -3.097656 8.46875 -3.546875 L 5.078125 -3.6875 C 4.960938 -3.113281 4.847656 -2.539062 4.734375 -1.96875 C 4.628906 -1.40625 4.523438 -0.835938 4.421875 -0.265625 C 4.347656 0.171875 4.175781 0.484375 3.90625 0.671875 C 3.644531 0.867188 3.34375 0.960938 3 0.953125 C 2.65625 0.953125 2.328125 0.863281 2.015625 0.6875 C 1.710938 0.507812 1.472656 0.265625 1.296875 -0.046875 C 1.117188 -0.359375 1.070312 -0.734375 1.15625 -1.171875 C 1.425781 -2.648438 1.726562 -4.109375 2.0625 -5.546875 C 2.40625 -6.992188 2.882812 -8.40625 3.5 -9.78125 C 3.800781 -10.457031 4.179688 -11.1875 4.640625 -11.96875 C 5.109375 -12.75 5.640625 -13.46875 6.234375 -14.125 C 6.835938 -14.78125 7.5 -15.257812 8.21875 -15.5625 C 8.894531 -15.84375 9.441406 -15.890625 9.859375 -15.703125 C 10.285156 -15.523438 10.617188 -15.203125 10.859375 -14.734375 C 11.097656 -14.273438 11.273438 -13.738281 11.390625 -13.125 C 11.503906 -12.519531 11.578125 -11.921875 11.609375 -11.328125 C 11.648438 -10.742188 11.679688 -10.253906 11.703125 -9.859375 Z M 6 -7.015625 C 6.40625 -7.003906 6.804688 -6.988281 7.203125 -6.96875 C 7.597656 -6.957031 7.988281 -6.945312 8.375 -6.9375 C 8.363281 -7.425781 8.351562 -7.914062 8.34375 -8.40625 C 8.332031 -8.894531 8.320312 -9.378906 8.3125 -9.859375 C 8.289062 -10.054688 8.28125 -10.265625 8.28125 -10.484375 C 8.28125 -10.703125 8.28125 -10.925781 8.28125 -11.15625 C 8.03125 -10.851562 7.8125 -10.566406 7.625 -10.296875 C 7.332031 -9.847656 7.0625 -9.378906 6.8125 -8.890625 C 6.5625 -8.398438 6.335938 -7.90625 6.140625 -7.40625 C 6.128906 -7.34375 6.109375 -7.273438 6.078125 -7.203125 C 6.054688 -7.140625 6.03125 -7.078125 6 -7.015625 Z M 6 -7.015625 "/></g></g><g style="fill:#ffffff;fill-opacity:1;"><g transform="translate(281.690933, 111.804215)"><path style="stroke:none" d="M 12.84375 -2.125 C 13.101562 -1.757812 13.207031 -1.414062 13.15625 -1.09375 C 13.113281 -0.769531 12.972656 -0.488281 12.734375 -0.25 C 12.492188 -0.0078125 12.203125 0.15625 11.859375 0.25 C 11.523438 0.351562 11.179688 0.351562 10.828125 0.25 C 10.472656 0.15625 10.164062 -0.0625 9.90625 -0.40625 C 9.226562 -1.34375 8.472656 -2.203125 7.640625 -2.984375 C 6.804688 -3.765625 5.90625 -4.472656 4.9375 -5.109375 C 4.863281 -4.210938 4.789062 -3.316406 4.71875 -2.421875 C 4.65625 -1.523438 4.585938 -0.632812 4.515625 0.25 C 4.484375 0.6875 4.34375 1.03125 4.09375 1.28125 C 3.84375 1.539062 3.546875 1.710938 3.203125 1.796875 C 2.859375 1.890625 2.523438 1.894531 2.203125 1.8125 C 1.878906 1.726562 1.609375 1.554688 1.390625 1.296875 C 1.179688 1.035156 1.09375 0.6875 1.125 0.25 C 1.257812 -1.394531 1.363281 -3.066406 1.4375 -4.765625 C 1.519531 -6.460938 1.722656 -8.125 2.046875 -9.75 C 2.210938 -10.59375 2.519531 -11.40625 2.96875 -12.1875 C 3.425781 -12.96875 4.003906 -13.613281 4.703125 -14.125 C 5.398438 -14.644531 6.21875 -14.925781 7.15625 -14.96875 C 7.800781 -15 8.410156 -14.878906 8.984375 -14.609375 C 9.566406 -14.335938 10.0625 -13.957031 10.46875 -13.46875 C 10.875 -12.988281 11.148438 -12.445312 11.296875 -11.84375 C 11.441406 -11.25 11.410156 -10.628906 11.203125 -9.984375 C 10.984375 -9.335938 10.632812 -8.726562 10.15625 -8.15625 C 9.6875 -7.582031 9.144531 -7.082031 8.53125 -6.65625 C 10.144531 -5.351562 11.582031 -3.84375 12.84375 -2.125 Z M 6.796875 -9.640625 C 6.890625 -9.734375 7.039062 -9.875 7.25 -10.0625 C 7.457031 -10.25 7.644531 -10.445312 7.8125 -10.65625 C 7.976562 -10.863281 8.046875 -11.03125 8.015625 -11.15625 C 7.953125 -11.46875 7.832031 -11.640625 7.65625 -11.671875 C 7.488281 -11.703125 7.296875 -11.648438 7.078125 -11.515625 C 6.859375 -11.390625 6.644531 -11.21875 6.4375 -11 C 6.226562 -10.78125 6.046875 -10.570312 5.890625 -10.375 C 5.742188 -10.1875 5.644531 -10.046875 5.59375 -9.953125 C 5.476562 -9.609375 5.375 -9.234375 5.28125 -8.828125 C 5.582031 -8.867188 5.851562 -8.960938 6.09375 -9.109375 C 6.332031 -9.253906 6.566406 -9.429688 6.796875 -9.640625 Z M 6.796875 -9.640625 "/></g></g><g style="fill:#ffffff;fill-opacity:1;"><g transform="translate(295.979085, 111.804215)"><path style="stroke:none" d="M 9.9375 -13.6875 C 10 -14.101562 10.15625 -14.410156 10.40625 -14.609375 C 10.664062 -14.804688 10.960938 -14.90625 11.296875 -14.90625 C 11.640625 -14.90625 11.96875 -14.8125 12.28125 -14.625 C 12.59375 -14.445312 12.835938 -14.195312 13.015625 -13.875 C 13.203125 -13.5625 13.265625 -13.195312 13.203125 -12.78125 C 12.585938 -8.625 11.820312 -4.5 10.90625 -0.40625 C 10.832031 -0.0703125 10.660156 0.195312 10.390625 0.40625 C 10.128906 0.613281 9.828125 0.742188 9.484375 0.796875 C 9.140625 0.847656 8.8125 0.8125 8.5 0.6875 C 8.1875 0.5625 7.957031 0.332031 7.8125 0 C 7.46875 -0.820312 7.113281 -1.644531 6.75 -2.46875 C 6.382812 -3.289062 6.023438 -4.109375 5.671875 -4.921875 C 5.441406 -3.941406 5.222656 -2.957031 5.015625 -1.96875 C 4.804688 -0.988281 4.609375 -0.0078125 4.421875 0.96875 C 4.347656 1.40625 4.175781 1.722656 3.90625 1.921875 C 3.632812 2.117188 3.328125 2.210938 2.984375 2.203125 C 2.648438 2.191406 2.328125 2.097656 2.015625 1.921875 C 1.710938 1.753906 1.472656 1.507812 1.296875 1.1875 C 1.117188 0.875 1.078125 0.5 1.171875 0.0625 C 1.835938 -3.519531 2.648438 -7.070312 3.609375 -10.59375 C 3.703125 -10.90625 3.882812 -11.164062 4.15625 -11.375 C 4.425781 -11.59375 4.726562 -11.726562 5.0625 -11.78125 C 5.40625 -11.84375 5.726562 -11.8125 6.03125 -11.6875 C 6.332031 -11.570312 6.554688 -11.34375 6.703125 -11 L 8.6875 -6.40625 C 8.925781 -7.613281 9.144531 -8.820312 9.34375 -10.03125 C 9.550781 -11.25 9.75 -12.46875 9.9375 -13.6875 Z M 9.9375 -13.6875 "/></g></g><g style="fill:#ffffff;fill-opacity:1;"><g transform="translate(310.334955, 111.804215)"><path style="stroke:none" d="M 2.140625 -13.90625 C 2.191406 -14.332031 2.34375 -14.671875 2.59375 -14.921875 C 2.851562 -15.179688 3.15625 -15.351562 3.5 -15.4375 C 3.84375 -15.53125 4.179688 -15.535156 4.515625 -15.453125 C 4.847656 -15.367188 5.109375 -15.195312 5.296875 -14.9375 C 5.492188 -14.675781 5.570312 -14.332031 5.53125 -13.90625 C 5.09375 -9.832031 4.753906 -5.742188 4.515625 -1.640625 C 4.484375 -1.210938 4.347656 -0.863281 4.109375 -0.59375 C 3.867188 -0.332031 3.578125 -0.160156 3.234375 -0.078125 C 2.898438 0.00390625 2.566406 0.00390625 2.234375 -0.078125 C 1.898438 -0.160156 1.625 -0.332031 1.40625 -0.59375 C 1.1875 -0.863281 1.09375 -1.210938 1.125 -1.640625 C 1.363281 -5.742188 1.703125 -9.832031 2.140625 -13.90625 Z M 2.140625 -13.90625 "/></g></g><g style="fill:#ffffff;fill-opacity:1;"><g transform="translate(317.016303, 111.804215)"><path style="stroke:none" d="M 9.9375 -13.6875 C 10 -14.101562 10.15625 -14.410156 10.40625 -14.609375 C 10.664062 -14.804688 10.960938 -14.90625 11.296875 -14.90625 C 11.640625 -14.90625 11.96875 -14.8125 12.28125 -14.625 C 12.59375 -14.445312 12.835938 -14.195312 13.015625 -13.875 C 13.203125 -13.5625 13.265625 -13.195312 13.203125 -12.78125 C 12.585938 -8.625 11.820312 -4.5 10.90625 -0.40625 C 10.832031 -0.0703125 10.660156 0.195312 10.390625 0.40625 C 10.128906 0.613281 9.828125 0.742188 9.484375 0.796875 C 9.140625 0.847656 8.8125 0.8125 8.5 0.6875 C 8.1875 0.5625 7.957031 0.332031 7.8125 0 C 7.46875 -0.820312 7.113281 -1.644531 6.75 -2.46875 C 6.382812 -3.289062 6.023438 -4.109375 5.671875 -4.921875 C 5.441406 -3.941406 5.222656 -2.957031 5.015625 -1.96875 C 4.804688 -0.988281 4.609375 -0.0078125 4.421875 0.96875 C 4.347656 1.40625 4.175781 1.722656 3.90625 1.921875 C 3.632812 2.117188 3.328125 2.210938 2.984375 2.203125 C 2.648438 2.191406 2.328125 2.097656 2.015625 1.921875 C 1.710938 1.753906 1.472656 1.507812 1.296875 1.1875 C 1.117188 0.875 1.078125 0.5 1.171875 0.0625 C 1.835938 -3.519531 2.648438 -7.070312 3.609375 -10.59375 C 3.703125 -10.90625 3.882812 -11.164062 4.15625 -11.375 C 4.425781 -11.59375 4.726562 -11.726562 5.0625 -11.78125 C 5.40625 -11.84375 5.726562 -11.8125 6.03125 -11.6875 C 6.332031 -11.570312 6.554688 -11.34375 6.703125 -11 L 8.6875 -6.40625 C 8.925781 -7.613281 9.144531 -8.820312 9.34375 -10.03125 C 9.550781 -11.25 9.75 -12.46875 9.9375 -13.6875 Z M 9.9375 -13.6875 "/></g></g><g style="fill:#ffffff;fill-opacity:1;"><g transform="translate(331.372172, 111.804215)"><path style="stroke:none" d="M 10.25 -9.421875 C 11.257812 -9.429688 12.035156 -9.1875 12.578125 -8.6875 C 13.117188 -8.195312 13.367188 -7.429688 13.328125 -6.390625 C 13.296875 -5.484375 13.0625 -4.617188 12.625 -3.796875 C 12.195312 -2.984375 11.613281 -2.320312 10.875 -1.8125 C 10.0625 -1.238281 9.175781 -0.9375 8.21875 -0.90625 C 7.269531 -0.875 6.335938 -0.992188 5.421875 -1.265625 C 4.304688 -1.578125 3.414062 -2.066406 2.75 -2.734375 C 2.09375 -3.410156 1.640625 -4.195312 1.390625 -5.09375 C 1.140625 -6 1.0625 -6.945312 1.15625 -7.9375 C 1.257812 -8.9375 1.507812 -9.925781 1.90625 -10.90625 C 2.300781 -11.882812 2.816406 -12.785156 3.453125 -13.609375 C 4.085938 -14.441406 4.8125 -15.140625 5.625 -15.703125 C 6.445312 -16.265625 7.335938 -16.628906 8.296875 -16.796875 C 9.253906 -16.960938 10.238281 -16.863281 11.25 -16.5 C 11.664062 -16.363281 11.960938 -16.140625 12.140625 -15.828125 C 12.328125 -15.523438 12.414062 -15.195312 12.40625 -14.84375 C 12.394531 -14.488281 12.304688 -14.164062 12.140625 -13.875 C 11.984375 -13.582031 11.75 -13.367188 11.4375 -13.234375 C 11.125 -13.097656 10.765625 -13.101562 10.359375 -13.25 C 9.640625 -13.488281 8.941406 -13.484375 8.265625 -13.234375 C 7.597656 -12.992188 6.988281 -12.578125 6.4375 -11.984375 C 5.894531 -11.398438 5.445312 -10.734375 5.09375 -9.984375 C 4.75 -9.242188 4.539062 -8.492188 4.46875 -7.734375 C 4.394531 -6.972656 4.5 -6.300781 4.78125 -5.71875 C 4.945312 -5.363281 5.210938 -5.066406 5.578125 -4.828125 C 5.953125 -4.585938 6.367188 -4.414062 6.828125 -4.3125 C 7.285156 -4.21875 7.726562 -4.203125 8.15625 -4.265625 C 8.59375 -4.335938 8.953125 -4.519531 9.234375 -4.8125 C 9.441406 -5.03125 9.613281 -5.300781 9.75 -5.625 C 9.769531 -5.664062 9.78125 -5.71875 9.78125 -5.78125 C 9.789062 -5.851562 9.804688 -5.925781 9.828125 -6 C 9.804688 -6 9.785156 -6 9.765625 -6 C 9.742188 -6 9.722656 -6 9.703125 -6 C 9.648438 -6 9.59375 -6 9.53125 -6 C 9.476562 -6 9.425781 -6 9.375 -6 C 9.113281 -5.726562 8.78125 -5.554688 8.375 -5.484375 C 7.96875 -5.421875 7.570312 -5.476562 7.1875 -5.65625 C 6.800781 -5.832031 6.523438 -6.148438 6.359375 -6.609375 C 6.140625 -7.265625 6.132812 -7.78125 6.34375 -8.15625 C 6.550781 -8.53125 6.882812 -8.800781 7.34375 -8.96875 C 7.800781 -9.144531 8.296875 -9.257812 8.828125 -9.3125 C 9.367188 -9.363281 9.84375 -9.398438 10.25 -9.421875 Z M 10.25 -9.421875 "/></g></g><g style="fill:#ffffff;fill-opacity:1;"><g transform="translate(345.818332, 111.804215)"><path style="stroke:none" d=""/></g></g><g style="fill:#ffffff;fill-opacity:1;"><g transform="translate(352.680261, 111.804215)"><path style="stroke:none" d="M 9.421875 -4.78125 C 9.847656 -4.769531 10.191406 -4.644531 10.453125 -4.40625 C 10.722656 -4.175781 10.898438 -3.890625 10.984375 -3.546875 C 11.066406 -3.210938 11.066406 -2.875 10.984375 -2.53125 C 10.898438 -2.195312 10.722656 -1.921875 10.453125 -1.703125 C 10.191406 -1.484375 9.847656 -1.390625 9.421875 -1.421875 C 8.390625 -1.453125 7.363281 -1.441406 6.34375 -1.390625 C 5.320312 -1.347656 4.300781 -1.242188 3.28125 -1.078125 C 2.957031 -1.023438 2.625 -1.050781 2.28125 -1.15625 C 1.9375 -1.269531 1.644531 -1.453125 1.40625 -1.703125 C 1.175781 -1.960938 1.09375 -2.296875 1.15625 -2.703125 C 1.40625 -4.796875 1.6875 -6.878906 2 -8.953125 C 2.3125 -11.035156 2.644531 -13.109375 3 -15.171875 C 3.050781 -15.429688 3.144531 -15.65625 3.28125 -15.84375 C 3.394531 -16.0625 3.5625 -16.238281 3.78125 -16.375 C 4.007812 -16.507812 4.289062 -16.582031 4.625 -16.59375 C 6.25 -16.65625 7.875 -16.625 9.5 -16.5 C 9.9375 -16.46875 10.285156 -16.328125 10.546875 -16.078125 C 10.816406 -15.835938 10.992188 -15.546875 11.078125 -15.203125 C 11.160156 -14.867188 11.160156 -14.535156 11.078125 -14.203125 C 10.992188 -13.867188 10.816406 -13.597656 10.546875 -13.390625 C 10.285156 -13.179688 9.9375 -13.09375 9.5 -13.125 C 8.382812 -13.195312 7.25 -13.234375 6.09375 -13.234375 C 6.019531 -12.796875 5.941406 -12.359375 5.859375 -11.921875 C 5.785156 -11.484375 5.722656 -11.046875 5.671875 -10.609375 C 6.285156 -10.597656 6.878906 -10.566406 7.453125 -10.515625 C 7.898438 -10.460938 8.289062 -10.289062 8.625 -10 C 8.96875 -9.71875 9.140625 -9.328125 9.140625 -8.828125 C 9.140625 -8.546875 9.0625 -8.269531 8.90625 -8 C 8.75 -7.726562 8.539062 -7.507812 8.28125 -7.34375 C 8.03125 -7.175781 7.753906 -7.109375 7.453125 -7.140625 C 6.679688 -7.210938 5.910156 -7.238281 5.140625 -7.21875 C 5.085938 -6.800781 5.03125 -6.378906 4.96875 -5.953125 C 4.90625 -5.523438 4.84375 -5.09375 4.78125 -4.65625 C 5.550781 -4.726562 6.316406 -4.78125 7.078125 -4.8125 C 7.847656 -4.84375 8.628906 -4.832031 9.421875 -4.78125 Z M 9.421875 -4.78125 "/></g></g><g style="fill:#ffffff;fill-opacity:1;"><g transform="translate(364.936941, 111.804215)"><path style="stroke:none" d="M 9.9375 -13.6875 C 10 -14.101562 10.15625 -14.410156 10.40625 -14.609375 C 10.664062 -14.804688 10.960938 -14.90625 11.296875 -14.90625 C 11.640625 -14.90625 11.96875 -14.8125 12.28125 -14.625 C 12.59375 -14.445312 12.835938 -14.195312 13.015625 -13.875 C 13.203125 -13.5625 13.265625 -13.195312 13.203125 -12.78125 C 12.585938 -8.625 11.820312 -4.5 10.90625 -0.40625 C 10.832031 -0.0703125 10.660156 0.195312 10.390625 0.40625 C 10.128906 0.613281 9.828125 0.742188 9.484375 0.796875 C 9.140625 0.847656 8.8125 0.8125 8.5 0.6875 C 8.1875 0.5625 7.957031 0.332031 7.8125 0 C 7.46875 -0.820312 7.113281 -1.644531 6.75 -2.46875 C 6.382812 -3.289062 6.023438 -4.109375 5.671875 -4.921875 C 5.441406 -3.941406 5.222656 -2.957031 5.015625 -1.96875 C 4.804688 -0.988281 4.609375 -0.0078125 4.421875 0.96875 C 4.347656 1.40625 4.175781 1.722656 3.90625 1.921875 C 3.632812 2.117188 3.328125 2.210938 2.984375 2.203125 C 2.648438 2.191406 2.328125 2.097656 2.015625 1.921875 C 1.710938 1.753906 1.472656 1.507812 1.296875 1.1875 C 1.117188 0.875 1.078125 0.5 1.171875 0.0625 C 1.835938 -3.519531 2.648438 -7.070312 3.609375 -10.59375 C 3.703125 -10.90625 3.882812 -11.164062 4.15625 -11.375 C 4.425781 -11.59375 4.726562 -11.726562 5.0625 -11.78125 C 5.40625 -11.84375 5.726562 -11.8125 6.03125 -11.6875 C 6.332031 -11.570312 6.554688 -11.34375 6.703125 -11 L 8.6875 -6.40625 C 8.925781 -7.613281 9.144531 -8.820312 9.34375 -10.03125 C 9.550781 -11.25 9.75 -12.46875 9.9375 -13.6875 Z M 9.9375 -13.6875 "/></g></g><g style="fill:#ffffff;fill-opacity:1;"><g transform="translate(379.292789, 111.804215)"><path style="stroke:none" d="M 10.25 -9.421875 C 11.257812 -9.429688 12.035156 -9.1875 12.578125 -8.6875 C 13.117188 -8.195312 13.367188 -7.429688 13.328125 -6.390625 C 13.296875 -5.484375 13.0625 -4.617188 12.625 -3.796875 C 12.195312 -2.984375 11.613281 -2.320312 10.875 -1.8125 C 10.0625 -1.238281 9.175781 -0.9375 8.21875 -0.90625 C 7.269531 -0.875 6.335938 -0.992188 5.421875 -1.265625 C 4.304688 -1.578125 3.414062 -2.066406 2.75 -2.734375 C 2.09375 -3.410156 1.640625 -4.195312 1.390625 -5.09375 C 1.140625 -6 1.0625 -6.945312 1.15625 -7.9375 C 1.257812 -8.9375 1.507812 -9.925781 1.90625 -10.90625 C 2.300781 -11.882812 2.816406 -12.785156 3.453125 -13.609375 C 4.085938 -14.441406 4.8125 -15.140625 5.625 -15.703125 C 6.445312 -16.265625 7.335938 -16.628906 8.296875 -16.796875 C 9.253906 -16.960938 10.238281 -16.863281 11.25 -16.5 C 11.664062 -16.363281 11.960938 -16.140625 12.140625 -15.828125 C 12.328125 -15.523438 12.414062 -15.195312 12.40625 -14.84375 C 12.394531 -14.488281 12.304688 -14.164062 12.140625 -13.875 C 11.984375 -13.582031 11.75 -13.367188 11.4375 -13.234375 C 11.125 -13.097656 10.765625 -13.101562 10.359375 -13.25 C 9.640625 -13.488281 8.941406 -13.484375 8.265625 -13.234375 C 7.597656 -12.992188 6.988281 -12.578125 6.4375 -11.984375 C 5.894531 -11.398438 5.445312 -10.734375 5.09375 -9.984375 C 4.75 -9.242188 4.539062 -8.492188 4.46875 -7.734375 C 4.394531 -6.972656 4.5 -6.300781 4.78125 -5.71875 C 4.945312 -5.363281 5.210938 -5.066406 5.578125 -4.828125 C 5.953125 -4.585938 6.367188 -4.414062 6.828125 -4.3125 C 7.285156 -4.21875 7.726562 -4.203125 8.15625 -4.265625 C 8.59375 -4.335938 8.953125 -4.519531 9.234375 -4.8125 C 9.441406 -5.03125 9.613281 -5.300781 9.75 -5.625 C 9.769531 -5.664062 9.78125 -5.71875 9.78125 -5.78125 C 9.789062 -5.851562 9.804688 -5.925781 9.828125 -6 C 9.804688 -6 9.785156 -6 9.765625 -6 C 9.742188 -6 9.722656 -6 9.703125 -6 C 9.648438 -6 9.59375 -6 9.53125 -6 C 9.476562 -6 9.425781 -6 9.375 -6 C 9.113281 -5.726562 8.78125 -5.554688 8.375 -5.484375 C 7.96875 -5.421875 7.570312 -5.476562 7.1875 -5.65625 C 6.800781 -5.832031 6.523438 -6.148438 6.359375 -6.609375 C 6.140625 -7.265625 6.132812 -7.78125 6.34375 -8.15625 C 6.550781 -8.53125 6.882812 -8.800781 7.34375 -8.96875 C 7.800781 -9.144531 8.296875 -9.257812 8.828125 -9.3125 C 9.367188 -9.363281 9.84375 -9.398438 10.25 -9.421875 Z M 10.25 -9.421875 "/></g></g><g style="fill:#ffffff;fill-opacity:1;"><g transform="translate(393.738972, 111.804215)"><path style="stroke:none" d="M 9.953125 -7.296875 C 10.390625 -7.328125 10.734375 -7.238281 10.984375 -7.03125 C 11.242188 -6.832031 11.421875 -6.566406 11.515625 -6.234375 C 11.609375 -5.898438 11.609375 -5.5625 11.515625 -5.21875 C 11.421875 -4.875 11.242188 -4.578125 10.984375 -4.328125 C 10.722656 -4.078125 10.378906 -3.9375 9.953125 -3.90625 C 8.804688 -3.8125 7.679688 -3.660156 6.578125 -3.453125 C 5.472656 -3.253906 4.375 -3 3.28125 -2.6875 C 2.957031 -2.59375 2.625 -2.609375 2.28125 -2.734375 C 1.9375 -2.867188 1.648438 -3.070312 1.421875 -3.34375 C 1.191406 -3.625 1.09375 -3.953125 1.125 -4.328125 C 1.3125 -6.097656 1.488281 -7.863281 1.65625 -9.625 C 1.832031 -11.382812 2.003906 -13.144531 2.171875 -14.90625 C 2.210938 -15.320312 2.359375 -15.660156 2.609375 -15.921875 C 2.867188 -16.191406 3.171875 -16.367188 3.515625 -16.453125 C 3.867188 -16.535156 4.207031 -16.535156 4.53125 -16.453125 C 4.851562 -16.367188 5.113281 -16.191406 5.3125 -15.921875 C 5.519531 -15.660156 5.597656 -15.320312 5.546875 -14.90625 C 5.410156 -13.5 5.273438 -12.097656 5.140625 -10.703125 C 5.003906 -9.316406 4.867188 -7.929688 4.734375 -6.546875 C 6.441406 -6.910156 8.179688 -7.160156 9.953125 -7.296875 Z M 9.953125 -7.296875 "/></g></g><g style="fill:#ffffff;fill-opacity:1;"><g transform="translate(406.447083, 111.804215)"><path style="stroke:none" d="M 2.140625 -13.90625 C 2.191406 -14.332031 2.34375 -14.671875 2.59375 -14.921875 C 2.851562 -15.179688 3.15625 -15.351562 3.5 -15.4375 C 3.84375 -15.53125 4.179688 -15.535156 4.515625 -15.453125 C 4.847656 -15.367188 5.109375 -15.195312 5.296875 -14.9375 C 5.492188 -14.675781 5.570312 -14.332031 5.53125 -13.90625 C 5.09375 -9.832031 4.753906 -5.742188 4.515625 -1.640625 C 4.484375 -1.210938 4.347656 -0.863281 4.109375 -0.59375 C 3.867188 -0.332031 3.578125 -0.160156 3.234375 -0.078125 C 2.898438 0.00390625 2.566406 0.00390625 2.234375 -0.078125 C 1.898438 -0.160156 1.625 -0.332031 1.40625 -0.59375 C 1.1875 -0.863281 1.09375 -1.210938 1.125 -1.640625 C 1.363281 -5.742188 1.703125 -9.832031 2.140625 -13.90625 Z M 2.140625 -13.90625 "/></g></g><g style="fill:#ffffff;fill-opacity:1;"><g transform="translate(413.128408, 111.804215)"><path style="stroke:none" d="M 8.421875 -9.75 C 9.265625 -9.175781 9.929688 -8.429688 10.421875 -7.515625 C 10.910156 -6.597656 11.101562 -5.617188 11 -4.578125 C 10.894531 -3.679688 10.582031 -2.90625 10.0625 -2.25 C 9.550781 -1.601562 8.921875 -1.097656 8.171875 -0.734375 C 7.429688 -0.378906 6.644531 -0.179688 5.8125 -0.140625 C 4.976562 -0.109375 4.175781 -0.25 3.40625 -0.5625 C 2.644531 -0.875 2 -1.382812 1.46875 -2.09375 C 1.195312 -2.445312 1.082031 -2.785156 1.125 -3.109375 C 1.175781 -3.429688 1.316406 -3.710938 1.546875 -3.953125 C 1.773438 -4.191406 2.0625 -4.359375 2.40625 -4.453125 C 2.757812 -4.554688 3.113281 -4.5625 3.46875 -4.46875 C 3.820312 -4.375 4.125 -4.15625 4.375 -3.8125 C 4.5 -3.644531 4.722656 -3.550781 5.046875 -3.53125 C 5.378906 -3.507812 5.710938 -3.523438 6.046875 -3.578125 C 6.378906 -3.628906 6.613281 -3.6875 6.75 -3.75 C 7.0625 -3.894531 7.296875 -4.113281 7.453125 -4.40625 C 7.617188 -4.707031 7.675781 -5.03125 7.625 -5.375 C 7.582031 -5.789062 7.429688 -6.132812 7.171875 -6.40625 C 6.921875 -6.675781 6.617188 -6.910156 6.265625 -7.109375 C 5.910156 -7.316406 5.550781 -7.515625 5.1875 -7.703125 C 4.832031 -7.898438 4.519531 -8.109375 4.25 -8.328125 C 3.488281 -8.992188 3.023438 -9.710938 2.859375 -10.484375 C 2.703125 -11.265625 2.757812 -12.039062 3.03125 -12.8125 C 3.3125 -13.582031 3.742188 -14.285156 4.328125 -14.921875 C 4.921875 -15.554688 5.59375 -16.046875 6.34375 -16.390625 C 6.75 -16.585938 7.125 -16.640625 7.46875 -16.546875 C 7.820312 -16.460938 8.117188 -16.296875 8.359375 -16.046875 C 8.609375 -15.796875 8.78125 -15.503906 8.875 -15.171875 C 8.96875 -14.835938 8.953125 -14.515625 8.828125 -14.203125 C 8.703125 -13.898438 8.445312 -13.660156 8.0625 -13.484375 C 7.800781 -13.359375 7.5 -13.191406 7.15625 -12.984375 C 6.820312 -12.773438 6.546875 -12.519531 6.328125 -12.21875 C 6.109375 -11.925781 6.066406 -11.601562 6.203125 -11.25 C 6.285156 -11 6.460938 -10.785156 6.734375 -10.609375 C 7.015625 -10.441406 7.3125 -10.289062 7.625 -10.15625 C 7.945312 -10.019531 8.210938 -9.882812 8.421875 -9.75 Z M 8.421875 -9.75 "/></g></g><g style="fill:#ffffff;fill-opacity:1;"><g transform="translate(425.272225, 111.804215)"><path style="stroke:none" d="M 9.6875 -15.78125 C 9.757812 -16.207031 9.929688 -16.515625 10.203125 -16.703125 C 10.472656 -16.898438 10.773438 -17 11.109375 -17 C 11.453125 -17 11.773438 -16.90625 12.078125 -16.71875 C 12.390625 -16.539062 12.632812 -16.296875 12.8125 -15.984375 C 12.988281 -15.671875 13.03125 -15.300781 12.9375 -14.875 C 12.125 -10.71875 11.566406 -6.535156 11.265625 -2.328125 C 11.234375 -1.898438 11.09375 -1.554688 10.84375 -1.296875 C 10.59375 -1.035156 10.296875 -0.859375 9.953125 -0.765625 C 9.609375 -0.671875 9.273438 -0.671875 8.953125 -0.765625 C 8.628906 -0.859375 8.359375 -1.03125 8.140625 -1.28125 C 7.929688 -1.539062 7.84375 -1.890625 7.875 -2.328125 C 7.925781 -3.035156 7.984375 -3.742188 8.046875 -4.453125 C 8.117188 -5.160156 8.191406 -5.863281 8.265625 -6.5625 L 5.171875 -6.5625 C 5.066406 -5.664062 4.960938 -4.769531 4.859375 -3.875 C 4.753906 -2.976562 4.644531 -2.085938 4.53125 -1.203125 C 4.476562 -0.765625 4.320312 -0.414062 4.0625 -0.15625 C 3.8125 0.09375 3.507812 0.257812 3.15625 0.34375 C 2.8125 0.425781 2.472656 0.425781 2.140625 0.34375 C 1.804688 0.257812 1.539062 0.09375 1.34375 -0.15625 C 1.15625 -0.414062 1.09375 -0.765625 1.15625 -1.203125 C 1.289062 -2.429688 1.429688 -3.664062 1.578125 -4.90625 C 1.734375 -6.15625 1.878906 -7.398438 2.015625 -8.640625 C 2.085938 -9.234375 2.15625 -9.828125 2.21875 -10.421875 C 2.289062 -11.023438 2.363281 -11.628906 2.4375 -12.234375 C 2.5 -12.765625 2.546875 -13.320312 2.578125 -13.90625 C 2.617188 -14.488281 2.738281 -15.03125 2.9375 -15.53125 C 3.082031 -15.9375 3.3125 -16.234375 3.625 -16.421875 C 3.9375 -16.609375 4.265625 -16.695312 4.609375 -16.6875 C 4.960938 -16.6875 5.289062 -16.597656 5.59375 -16.421875 C 5.894531 -16.253906 6.109375 -16.019531 6.234375 -15.71875 C 6.367188 -15.414062 6.351562 -15.050781 6.1875 -14.625 C 6.007812 -14.144531 5.90625 -13.613281 5.875 -13.03125 C 5.84375 -12.457031 5.796875 -11.914062 5.734375 -11.40625 C 5.703125 -11.164062 5.671875 -10.921875 5.640625 -10.671875 C 5.609375 -10.429688 5.578125 -10.191406 5.546875 -9.953125 L 8.6875 -9.953125 C 8.820312 -10.921875 8.972656 -11.894531 9.140625 -12.875 C 9.304688 -13.851562 9.488281 -14.820312 9.6875 -15.78125 Z M 9.6875 -15.78125 "/></g></g><g style="fill:#ffffff;fill-opacity:1;"><g transform="translate(171.417004, 143.917122)"><path style="stroke:none" d="M 6.390625 0 L 5.046875 -2.5625 L 3.21875 -2.5625 L 3.21875 0 L 0.90625 0 L 0.90625 -9.09375 L 4.984375 -9.09375 C 6.179688 -9.09375 7.109375 -8.816406 7.765625 -8.265625 C 8.429688 -7.722656 8.765625 -6.941406 8.765625 -5.921875 C 8.765625 -4.523438 8.210938 -3.550781 7.109375 -3 L 9.015625 0 Z M 3.21875 -4.375 L 4.984375 -4.375 C 5.484375 -4.375 5.867188 -4.5 6.140625 -4.75 C 6.421875 -5.007812 6.5625 -5.375 6.5625 -5.84375 C 6.5625 -6.3125 6.421875 -6.664062 6.140625 -6.90625 C 5.867188 -7.15625 5.484375 -7.28125 4.984375 -7.28125 L 3.21875 -7.28125 Z M 3.21875 -4.375 "/></g></g><g style="fill:#ffffff;fill-opacity:1;"><g transform="translate(185.219265, 143.917122)"><path style="stroke:none" d="M 6.953125 -1.671875 L 2.984375 -1.671875 L 2.3125 0 L -0.0625 0 L 3.859375 -9.09375 L 6.234375 -9.09375 L 10.078125 0 L 7.609375 0 Z M 6.28125 -3.4375 L 4.984375 -6.796875 L 3.65625 -3.4375 Z M 6.28125 -3.4375 "/></g></g><g style="fill:#ffffff;fill-opacity:1;"><g transform="translate(199.619342, 143.917122)"><path style="stroke:none" d="M 10.90625 0 L 8.859375 0 L 8.859375 -5.921875 L 6.671875 -0.90625 L 5.15625 -0.90625 L 2.984375 -5.921875 L 2.984375 0 L 0.90625 0 L 0.90625 -9.109375 L 3.4375 -9.109375 L 5.921875 -3.6875 L 8.390625 -9.109375 L 10.90625 -9.109375 Z M 10.90625 0 "/></g></g><g style="fill:#ffffff;fill-opacity:1;"><g transform="translate(215.83887, 143.917122)"><path style="stroke:none" d="M 8.3125 -7.625 L 3.453125 -1.828125 L 8.390625 -1.828125 L 8.390625 0 L 0.359375 0 L 0.359375 -1.484375 L 5.234375 -7.265625 L 0.53125 -7.265625 L 0.53125 -9.09375 L 8.3125 -9.09375 Z M 8.3125 -7.625 "/></g></g><g style="fill:#ffffff;fill-opacity:1;"><g transform="translate(229.004325, 143.917122)"><path style="stroke:none" d="M 3.21875 0 L 0.90625 0 L 0.90625 -9.09375 L 3.21875 -9.09375 Z M 3.21875 0 "/></g></g><g style="fill:#ffffff;fill-opacity:1;"><g transform="translate(237.530207, 143.917122)"><path style="stroke:none" d=""/></g></g><g style="fill:#ffffff;fill-opacity:1;"><g transform="translate(244.938425, 143.917122)"><path style="stroke:none" d="M 6.953125 -1.671875 L 2.984375 -1.671875 L 2.3125 0 L -0.0625 0 L 3.859375 -9.09375 L 6.234375 -9.09375 L 10.078125 0 L 7.609375 0 Z M 6.28125 -3.4375 L 4.984375 -6.796875 L 3.65625 -3.4375 Z M 6.28125 -3.4375 "/></g></g><g style="fill:#ffffff;fill-opacity:1;"><g transform="translate(259.338503, 143.917122)"><path style="stroke:none" d="M 0.90625 -9.09375 L 5.21875 -9.09375 C 6.238281 -9.09375 7.046875 -8.882812 7.640625 -8.46875 C 8.242188 -8.0625 8.546875 -7.515625 8.546875 -6.828125 C 8.546875 -6.347656 8.40625 -5.925781 8.125 -5.5625 C 7.851562 -5.207031 7.476562 -4.960938 7 -4.828125 C 7.570312 -4.710938 8.023438 -4.445312 8.359375 -4.03125 C 8.691406 -3.613281 8.859375 -3.109375 8.859375 -2.515625 C 8.859375 -1.742188 8.546875 -1.128906 7.921875 -0.671875 C 7.296875 -0.222656 6.445312 0 5.375 0 L 0.90625 0 Z M 3.21875 -7.328125 L 3.21875 -5.453125 L 5.078125 -5.453125 C 5.421875 -5.453125 5.691406 -5.535156 5.890625 -5.703125 C 6.085938 -5.878906 6.1875 -6.113281 6.1875 -6.40625 C 6.1875 -6.695312 6.085938 -6.921875 5.890625 -7.078125 C 5.691406 -7.242188 5.421875 -7.328125 5.078125 -7.328125 Z M 3.21875 -3.796875 L 3.21875 -1.78125 L 5.078125 -1.78125 C 5.515625 -1.78125 5.851562 -1.867188 6.09375 -2.046875 C 6.34375 -2.234375 6.46875 -2.488281 6.46875 -2.8125 C 6.46875 -3.113281 6.34375 -3.351562 6.09375 -3.53125 C 5.851562 -3.707031 5.515625 -3.796875 5.078125 -3.796875 Z M 3.21875 -3.796875 "/></g></g><g style="fill:#ffffff;fill-opacity:1;"><g transform="translate(273.023804, 143.917122)"><path style="stroke:none" d="M 9.09375 -9.09375 L 9.09375 -3.828125 C 9.09375 -2.617188 8.71875 -1.660156 7.96875 -0.953125 C 7.226562 -0.242188 6.222656 0.109375 4.953125 0.109375 C 3.671875 0.109375 2.648438 -0.242188 1.890625 -0.953125 C 1.128906 -1.660156 0.75 -2.617188 0.75 -3.828125 L 0.75 -9.09375 L 3.0625 -9.09375 L 3.0625 -3.828125 C 3.0625 -3.210938 3.238281 -2.722656 3.59375 -2.359375 C 3.945312 -2.003906 4.40625 -1.828125 4.96875 -1.828125 C 5.519531 -1.828125 5.960938 -2.003906 6.296875 -2.359375 C 6.628906 -2.722656 6.796875 -3.210938 6.796875 -3.828125 L 6.796875 -9.09375 Z M 9.09375 -9.09375 "/></g></g><g style="fill:#ffffff;fill-opacity:1;"><g transform="translate(287.267933, 143.917122)"><path style="stroke:none" d="M 4.40625 -9.203125 C 5.769531 -9.203125 6.96875 -8.863281 8 -8.1875 L 7.125 -6.390625 C 6.644531 -6.660156 6.128906 -6.882812 5.578125 -7.0625 C 5.035156 -7.238281 4.582031 -7.328125 4.21875 -7.328125 C 3.550781 -7.328125 3.21875 -7.109375 3.21875 -6.671875 C 3.21875 -6.378906 3.378906 -6.144531 3.703125 -5.96875 C 4.035156 -5.800781 4.4375 -5.65625 4.90625 -5.53125 C 5.375 -5.40625 5.84375 -5.253906 6.3125 -5.078125 C 6.789062 -4.898438 7.191406 -4.609375 7.515625 -4.203125 C 7.847656 -3.804688 8.015625 -3.304688 8.015625 -2.703125 C 8.015625 -1.828125 7.671875 -1.144531 6.984375 -0.65625 C 6.304688 -0.164062 5.4375 0.078125 4.375 0.078125 C 3.625 0.078125 2.878906 -0.0507812 2.140625 -0.3125 C 1.410156 -0.570312 0.769531 -0.925781 0.21875 -1.375 L 1.125 -3.15625 C 1.582031 -2.757812 2.117188 -2.429688 2.734375 -2.171875 C 3.359375 -1.921875 3.914062 -1.796875 4.40625 -1.796875 C 4.78125 -1.796875 5.070312 -1.863281 5.28125 -2 C 5.488281 -2.132812 5.59375 -2.332031 5.59375 -2.59375 C 5.59375 -2.84375 5.472656 -3.050781 5.234375 -3.21875 C 4.992188 -3.382812 4.695312 -3.507812 4.34375 -3.59375 C 3.988281 -3.675781 3.601562 -3.785156 3.1875 -3.921875 C 2.769531 -4.066406 2.382812 -4.21875 2.03125 -4.375 C 1.675781 -4.539062 1.378906 -4.800781 1.140625 -5.15625 C 0.898438 -5.519531 0.78125 -5.957031 0.78125 -6.46875 C 0.78125 -7.289062 1.109375 -7.953125 1.765625 -8.453125 C 2.429688 -8.953125 3.3125 -9.203125 4.40625 -9.203125 Z M 4.40625 -9.203125 "/></g></g><g style="fill:#ffffff;fill-opacity:1;"><g transform="translate(300.030509, 143.917122)"><path style="stroke:none" d="M 9.3125 0 L 7 0 L 7 -3.53125 L 3.21875 -3.53125 L 3.21875 0 L 0.90625 0 L 0.90625 -9.09375 L 3.21875 -9.09375 L 3.21875 -5.359375 L 7 -5.359375 L 7 -9.09375 L 9.3125 -9.09375 Z M 9.3125 0 "/></g></g><g style="fill:#ffffff;fill-opacity:1;"><g transform="translate(314.638526, 143.917122)"><path style="stroke:none" d="M 8.03125 -7.28125 L 3.21875 -7.28125 L 3.21875 -5.46875 L 7.5625 -5.46875 L 7.5625 -3.65625 L 3.21875 -3.65625 L 3.21875 -1.8125 L 8.171875 -1.8125 L 8.171875 0 L 0.90625 0 L 0.90625 -9.09375 L 8.03125 -9.09375 Z M 8.03125 -7.28125 "/></g></g><g style="fill:#ffffff;fill-opacity:1;"><g transform="translate(327.790991, 143.917122)"><path style="stroke:none" d="M 9.3125 0 L 7 0 L 7 -3.53125 L 3.21875 -3.53125 L 3.21875 0 L 0.90625 0 L 0.90625 -9.09375 L 3.21875 -9.09375 L 3.21875 -5.359375 L 7 -5.359375 L 7 -9.09375 L 9.3125 -9.09375 Z M 9.3125 0 "/></g></g><g style="fill:#ffffff;fill-opacity:1;"><g transform="translate(342.399007, 143.917122)"><path style="stroke:none" d="M 6.953125 -1.671875 L 2.984375 -1.671875 L 2.3125 0 L -0.0625 0 L 3.859375 -9.09375 L 6.234375 -9.09375 L 10.078125 0 L 7.609375 0 Z M 6.28125 -3.4375 L 4.984375 -6.796875 L 3.65625 -3.4375 Z M 6.28125 -3.4375 "/></g></g><g style="fill:#ffffff;fill-opacity:1;"><g transform="translate(356.799085, 143.917122)"><path style="stroke:none" d="M 0.90625 -9.09375 L 5.21875 -9.09375 C 6.238281 -9.09375 7.046875 -8.882812 7.640625 -8.46875 C 8.242188 -8.0625 8.546875 -7.515625 8.546875 -6.828125 C 8.546875 -6.347656 8.40625 -5.925781 8.125 -5.5625 C 7.851562 -5.207031 7.476562 -4.960938 7 -4.828125 C 7.570312 -4.710938 8.023438 -4.445312 8.359375 -4.03125 C 8.691406 -3.613281 8.859375 -3.109375 8.859375 -2.515625 C 8.859375 -1.742188 8.546875 -1.128906 7.921875 -0.671875 C 7.296875 -0.222656 6.445312 0 5.375 0 L 0.90625 0 Z M 3.21875 -7.328125 L 3.21875 -5.453125 L 5.078125 -5.453125 C 5.421875 -5.453125 5.691406 -5.535156 5.890625 -5.703125 C 6.085938 -5.878906 6.1875 -6.113281 6.1875 -6.40625 C 6.1875 -6.695312 6.085938 -6.921875 5.890625 -7.078125 C 5.691406 -7.242188 5.421875 -7.328125 5.078125 -7.328125 Z M 3.21875 -3.796875 L 3.21875 -1.78125 L 5.078125 -1.78125 C 5.515625 -1.78125 5.851562 -1.867188 6.09375 -2.046875 C 6.34375 -2.234375 6.46875 -2.488281 6.46875 -2.8125 C 6.46875 -3.113281 6.34375 -3.351562 6.09375 -3.53125 C 5.851562 -3.707031 5.515625 -3.796875 5.078125 -3.796875 Z M 3.21875 -3.796875 "/></g></g></g></svg>