<svg xmlns="http://www.w3.org/2000/svg" xmlns:xlink="http://www.w3.org/1999/xlink" width="600" zoomAndPan="magnify" viewBox="0 0 450 225" height="300" preserveAspectRatio="xMidYMid meet" version="1.2"><defs><clipPath id="9c4d6d036f"><path d="M 43 63.015625 L 47 63.015625 L 47 81 L 43 81 Z M 43 63.015625 "/></clipPath><clipPath id="c1140b86dc"><path d="M 8.167969 104 L 26 104 L 26 111 L 8.167969 111 Z M 8.167969 104 "/></clipPath></defs><g id="c7b0709f82"><path style=" stroke:none;fill-rule:nonzero;fill:#ffd013;fill-opacity:1;" d="M 44.546875 81.089844 C 51.152344 78.152344 73.808594 84.660156 78.445312 92.507812 C 83.085938 100.351562 83.445312 105.714844 80.589844 113.570312 C 77.734375 121.425781 70.628906 127.128906 63.480469 128.195312 C 56.328125 129.261719 45.976562 131.402344 39.550781 123.558594 C 33.121094 115.710938 30.625 114.988281 30.273438 111.777344 C 29.921875 108.570312 28.132812 98.582031 32.769531 91.441406 C 37.40625 84.296875 38.121094 83.945312 44.546875 81.089844 Z M 44.546875 81.089844 "/><path style=" stroke:none;fill-rule:nonzero;fill:#000000;fill-opacity:1;" d="M 77.683594 97.339844 C 76.742188 93.382812 73.9375 89.9375 70.476562 87.863281 C 66.09375 85.234375 60.804688 84.5625 55.765625 84.792969 C 51.433594 84.988281 47.121094 85.769531 43.128906 87.488281 C 35.816406 90.648438 30.210938 97.550781 30.8125 105.820312 C 30.972656 107.917969 31.542969 109.976562 32.625 111.765625 C 33.902344 113.859375 35.730469 115.371094 37.699219 116.773438 C 41.550781 119.488281 46.539062 123.816406 45.117188 128.945312 C 44.921875 128.910156 44.726562 128.875 44.515625 128.839844 C 43.113281 128.589844 42.632812 131.039062 44.054688 131.34375 C 48.171875 132.210938 52.410156 132.601562 56.617188 132.265625 C 57.328125 132.210938 58.214844 131.730469 58.144531 130.863281 C 57.753906 126.195312 59.421875 121.511719 62.933594 118.351562 C 64.78125 116.699219 66.945312 115.476562 68.988281 114.074219 C 70.867188 112.777344 72.589844 111.339844 74.0625 109.601562 C 77.007812 106.246094 78.730469 101.792969 77.683594 97.339844 Z M 71.648438 108.003906 C 68.222656 111.839844 63.148438 113.59375 59.742188 117.429688 C 56.757812 120.78125 55.234375 125.058594 55.234375 129.476562 C 52.144531 129.65625 49.09375 129.550781 46.023438 129.105469 C 47.121094 126.054688 46.269531 122.609375 44.460938 119.894531 C 43.21875 118.03125 41.566406 116.59375 39.828125 115.210938 C 38.144531 113.878906 36.332031 112.566406 35.214844 110.667969 C 31.398438 104.226562 34.929688 96.0625 40.644531 92.140625 C 43.980469 89.851562 47.957031 88.644531 51.914062 88.039062 C 56.476562 87.347656 61.410156 87.347656 65.828125 88.855469 C 69.609375 90.152344 73.050781 92.847656 74.488281 96.683594 C 75.996094 100.730469 74.417969 104.917969 71.648438 108.003906 Z M 71.648438 108.003906 "/><path style=" stroke:none;fill-rule:nonzero;fill:#000000;fill-opacity:1;" d="M 57.417969 110.523438 C 55.835938 110.292969 55.003906 111.589844 54.453125 112.851562 C 54.433594 112.832031 54.433594 112.832031 54.417969 112.8125 C 55.820312 110.242188 56.652344 106.671875 54.738281 104.332031 C 54.363281 103.871094 53.6875 103.90625 53.261719 104.242188 C 52.019531 105.21875 51.824219 106.867188 51.683594 108.359375 C 51.542969 109.742188 51.578125 111.179688 52.109375 112.460938 C 51.933594 112.726562 51.753906 112.972656 51.542969 113.203125 C 50.972656 110.96875 49.484375 108.644531 46.910156 109.796875 C 44.566406 110.863281 44.320312 114.304688 46.304688 115.8125 C 47.390625 116.628906 48.597656 116.824219 49.765625 116.59375 C 49.890625 119.734375 49.394531 122.753906 48.703125 125.804688 C 48.523438 126.550781 49.5 126.851562 49.820312 126.160156 C 49.855469 126.089844 49.875 126.035156 49.910156 125.964844 C 50.121094 126.78125 51.488281 127.046875 51.773438 126.035156 C 52.394531 123.746094 53.085938 121.476562 53.832031 119.222656 C 54.1875 118.171875 54.542969 117.125 54.914062 116.078125 C 55.019531 115.777344 55.125 115.457031 55.234375 115.140625 C 55.480469 115.175781 55.730469 115.191406 55.996094 115.175781 C 57.257812 115.085938 58.5 114.304688 58.871094 113.0625 C 59.207031 111.980469 58.660156 110.703125 57.417969 110.523438 Z M 53.671875 107.347656 C 53.742188 108.039062 53.652344 108.769531 53.457031 109.476562 C 53.476562 109.265625 53.476562 109.050781 53.511719 108.839844 C 53.546875 108.414062 53.566406 107.863281 53.671875 107.347656 Z M 47.441406 112.832031 C 47.691406 111.875 48.4375 111.820312 48.96875 112.636719 C 49.304688 113.152344 49.484375 113.753906 49.609375 114.375 C 49.484375 114.394531 49.339844 114.410156 49.199219 114.410156 C 48.257812 114.464844 47.160156 113.933594 47.441406 112.832031 Z M 51.488281 120.621094 C 51.753906 119.007812 51.863281 117.355469 51.84375 115.761719 C 52.445312 115.371094 52.996094 114.871094 53.441406 114.324219 C 53.53125 114.410156 53.636719 114.480469 53.726562 114.554688 C 52.925781 116.539062 52.179688 118.582031 51.488281 120.621094 Z M 57.183594 112.796875 C 57.007812 113.238281 56.332031 113.488281 55.855469 113.488281 C 55.960938 113.257812 56.066406 113.042969 56.175781 112.832031 C 56.296875 112.53125 56.492188 112.28125 56.777344 112.085938 C 57.328125 112.15625 57.46875 112.386719 57.183594 112.796875 Z M 57.183594 112.796875 "/><path style=" stroke:none;fill-rule:nonzero;fill:#000000;fill-opacity:1;" d="M 56.03125 134.570312 C 55.089844 134.179688 53.992188 134.21875 52.980469 134.164062 C 51.863281 134.109375 50.742188 134.09375 49.625 134.144531 C 47.636719 134.234375 45.4375 134.269531 43.574219 134.980469 C 42.597656 135.351562 43.148438 136.628906 43.945312 136.753906 C 45.898438 137.039062 47.957031 136.808594 49.945312 136.949219 C 50.902344 137.019531 51.878906 137.09375 52.835938 137.214844 C 53.867188 137.339844 54.84375 137.589844 55.890625 137.445312 C 57.488281 137.234375 57.257812 135.085938 56.03125 134.570312 Z M 56.03125 134.570312 "/><path style=" stroke:none;fill-rule:nonzero;fill:#000000;fill-opacity:1;" d="M 53.335938 138.9375 C 52.039062 138.28125 50.191406 138.546875 48.792969 138.546875 C 47.121094 138.546875 45.492188 138.671875 43.839844 138.902344 C 42.828125 139.042969 43.148438 140.375 43.980469 140.535156 C 45.171875 140.746094 46.34375 140.941406 47.53125 141.121094 C 47.140625 141.777344 46.945312 142.539062 47.070312 143.230469 C 47.550781 145.824219 50.777344 146.851562 52.871094 145.46875 C 54.878906 144.101562 55.941406 140.234375 53.335938 138.9375 Z M 50.425781 142.664062 C 49.804688 142.574219 50.511719 142.0625 50.902344 141.953125 C 51.152344 141.882812 51.328125 141.757812 51.472656 141.597656 C 51.523438 141.597656 51.558594 141.582031 51.542969 141.5625 C 51.824219 142.183594 50.867188 142.734375 50.425781 142.664062 Z M 50.425781 142.664062 "/><g clip-rule="nonzero" clip-path="url(#9c4d6d036f)"><path style=" stroke:none;fill-rule:nonzero;fill:#000000;fill-opacity:1;" d="M 44.070312 79.804688 C 44.320312 81.136719 46.289062 80.921875 46.378906 79.609375 C 46.574219 77.019531 46.09375 74.285156 45.898438 71.695312 C 45.703125 69.140625 45.597656 66.566406 45.242188 64.027344 C 45.101562 63.015625 43.484375 63.160156 43.46875 64.171875 C 43.394531 66.796875 43.589844 69.441406 43.679688 72.066406 C 43.769531 74.605469 43.609375 77.304688 44.070312 79.804688 Z M 44.070312 79.804688 "/></g><path style=" stroke:none;fill-rule:nonzero;fill:#000000;fill-opacity:1;" d="M 26.394531 89.582031 C 25.222656 88.925781 24.085938 88.234375 22.96875 87.488281 C 20.769531 86.035156 18.675781 84.402344 16.703125 82.644531 C 15.621094 81.667969 13.882812 83.140625 14.964844 84.1875 C 16.972656 86.121094 19.082031 87.914062 21.355469 89.511719 C 22.4375 90.292969 23.554688 91.019531 24.707031 91.714844 C 25.878906 92.421875 27.140625 93.363281 28.523438 93.46875 C 29.570312 93.558594 30.140625 92.226562 29.464844 91.484375 C 28.683594 90.59375 27.425781 90.167969 26.394531 89.582031 Z M 26.394531 89.582031 "/><g clip-rule="nonzero" clip-path="url(#c1140b86dc)"><path style=" stroke:none;fill-rule:nonzero;fill:#000000;fill-opacity:1;" d="M 24.566406 106.992188 C 25.828125 106.636719 25.738281 104.757812 24.371094 104.6875 C 21.761719 104.527344 18.941406 105.324219 16.421875 105.980469 C 15.160156 106.320312 13.9375 106.671875 12.710938 107.101562 C 11.46875 107.527344 10.136719 107.898438 9.074219 108.679688 C 8.203125 109.316406 9.074219 110.453125 9.925781 110.347656 C 11.113281 110.207031 12.269531 109.671875 13.421875 109.316406 C 14.664062 108.945312 15.90625 108.609375 17.167969 108.324219 C 19.578125 107.773438 22.152344 107.667969 24.566406 106.992188 Z M 24.566406 106.992188 "/></g><path style=" stroke:none;fill-rule:nonzero;fill:#000000;fill-opacity:1;" d="M 68.96875 81.046875 C 71.207031 77.109375 73.851562 73.574219 77.257812 70.578125 C 78.640625 69.351562 76.726562 67.203125 75.359375 68.429688 C 71.792969 71.660156 68.84375 75.632812 67.070312 80.125 C 66.644531 81.242188 68.367188 82.09375 68.96875 81.046875 Z M 68.96875 81.046875 "/><path style=" stroke:none;fill-rule:nonzero;fill:#000000;fill-opacity:1;" d="M 96.300781 95.476562 C 93.691406 95.386719 91.027344 96.308594 88.613281 97.195312 C 86.113281 98.121094 83.824219 99.378906 81.695312 100.960938 C 80.753906 101.652344 81.816406 103.160156 82.828125 102.628906 C 84.960938 101.472656 87.195312 100.445312 89.503906 99.664062 C 91.808594 98.882812 94.207031 98.632812 96.511719 97.925781 C 97.789062 97.535156 97.773438 95.527344 96.300781 95.476562 Z M 96.300781 95.476562 "/><path style=" stroke:none;fill-rule:nonzero;fill:#000000;fill-opacity:1;" d="M 25.613281 120.710938 C 22.527344 123.816406 19.738281 127.1875 17.308594 130.808594 C 16.261719 132.351562 18.761719 133.984375 19.722656 132.40625 C 21.851562 128.820312 24.28125 125.433594 27.035156 122.308594 C 27.921875 121.316406 26.609375 119.71875 25.613281 120.710938 Z M 25.613281 120.710938 "/><path style=" stroke:none;fill-rule:nonzero;fill:#000000;fill-opacity:1;" d="M 88.933594 129.566406 C 87.054688 128.09375 84.90625 126.90625 82.882812 125.628906 C 80.878906 124.347656 78.855469 122.894531 76.707031 121.847656 C 75.835938 121.421875 74.558594 122.503906 75.464844 123.285156 C 77.273438 124.863281 79.367188 126.160156 81.339844 127.527344 C 83.363281 128.929688 85.367188 130.507812 87.515625 131.714844 C 88.96875 132.511719 90.246094 130.578125 88.933594 129.566406 Z M 88.933594 129.566406 "/><g style="fill:#000000;fill-opacity:1;"><g transform="translate(117.684338, 111.774699)"><path style="stroke:none" d="M 10.296875 -15.53125 C 10.710938 -15.488281 11.050781 -15.332031 11.3125 -15.0625 C 11.570312 -14.800781 11.742188 -14.5 11.828125 -14.15625 C 11.921875 -13.8125 11.921875 -13.476562 11.828125 -13.15625 C 11.742188 -12.832031 11.570312 -12.570312 11.3125 -12.375 C 11.050781 -12.175781 10.710938 -12.109375 10.296875 -12.171875 C 9.585938 -12.265625 8.863281 -12.332031 8.125 -12.375 C 8.019531 -10.71875 7.914062 -9.066406 7.8125 -7.421875 C 7.71875 -5.785156 7.617188 -4.144531 7.515625 -2.5 C 7.503906 -2.0625 7.375 -1.710938 7.125 -1.453125 C 6.875 -1.191406 6.578125 -1.019531 6.234375 -0.9375 C 5.898438 -0.851562 5.566406 -0.851562 5.234375 -0.9375 C 4.898438 -1.019531 4.628906 -1.191406 4.421875 -1.453125 C 4.210938 -1.710938 4.113281 -2.0625 4.125 -2.5 C 4.238281 -4.144531 4.34375 -5.796875 4.4375 -7.453125 C 4.53125 -9.109375 4.628906 -10.753906 4.734375 -12.390625 C 4.054688 -12.378906 3.394531 -12.335938 2.75 -12.265625 C 2.3125 -12.234375 1.960938 -12.3125 1.703125 -12.5 C 1.441406 -12.695312 1.269531 -12.960938 1.1875 -13.296875 C 1.101562 -13.628906 1.101562 -13.96875 1.1875 -14.3125 C 1.28125 -14.65625 1.453125 -14.953125 1.703125 -15.203125 C 1.960938 -15.453125 2.3125 -15.597656 2.75 -15.640625 C 5.269531 -15.898438 7.785156 -15.863281 10.296875 -15.53125 Z M 10.296875 -15.53125 "/></g></g><g style="fill:#000000;fill-opacity:1;"><g transform="translate(130.708454, 111.774699)"><path style="stroke:none" d="M 9.6875 -15.78125 C 9.757812 -16.207031 9.929688 -16.515625 10.203125 -16.703125 C 10.472656 -16.898438 10.773438 -17 11.109375 -17 C 11.453125 -17 11.773438 -16.90625 12.078125 -16.71875 C 12.390625 -16.539062 12.632812 -16.296875 12.8125 -15.984375 C 12.988281 -15.671875 13.03125 -15.300781 12.9375 -14.875 C 12.125 -10.71875 11.566406 -6.535156 11.265625 -2.328125 C 11.234375 -1.898438 11.09375 -1.554688 10.84375 -1.296875 C 10.59375 -1.035156 10.296875 -0.859375 9.953125 -0.765625 C 9.609375 -0.671875 9.273438 -0.671875 8.953125 -0.765625 C 8.628906 -0.859375 8.359375 -1.03125 8.140625 -1.28125 C 7.929688 -1.539062 7.84375 -1.890625 7.875 -2.328125 C 7.925781 -3.035156 7.984375 -3.742188 8.046875 -4.453125 C 8.117188 -5.160156 8.191406 -5.863281 8.265625 -6.5625 L 5.171875 -6.5625 C 5.066406 -5.664062 4.960938 -4.769531 4.859375 -3.875 C 4.753906 -2.976562 4.644531 -2.085938 4.53125 -1.203125 C 4.476562 -0.765625 4.320312 -0.414062 4.0625 -0.15625 C 3.8125 0.09375 3.507812 0.257812 3.15625 0.34375 C 2.8125 0.425781 2.472656 0.425781 2.140625 0.34375 C 1.804688 0.257812 1.539062 0.09375 1.34375 -0.15625 C 1.15625 -0.414062 1.09375 -0.765625 1.15625 -1.203125 C 1.289062 -2.429688 1.429688 -3.664062 1.578125 -4.90625 C 1.734375 -6.15625 1.878906 -7.398438 2.015625 -8.640625 C 2.085938 -9.234375 2.15625 -9.828125 2.21875 -10.421875 C 2.289062 -11.023438 2.363281 -11.628906 2.4375 -12.234375 C 2.5 -12.765625 2.546875 -13.320312 2.578125 -13.90625 C 2.617188 -14.488281 2.738281 -15.03125 2.9375 -15.53125 C 3.082031 -15.9375 3.3125 -16.234375 3.625 -16.421875 C 3.9375 -16.609375 4.265625 -16.695312 4.609375 -16.6875 C 4.960938 -16.6875 5.289062 -16.597656 5.59375 -16.421875 C 5.894531 -16.253906 6.109375 -16.019531 6.234375 -15.71875 C 6.367188 -15.414062 6.351562 -15.050781 6.1875 -14.625 C 6.007812 -14.144531 5.90625 -13.613281 5.875 -13.03125 C 5.84375 -12.457031 5.796875 -11.914062 5.734375 -11.40625 C 5.703125 -11.164062 5.671875 -10.921875 5.640625 -10.671875 C 5.609375 -10.429688 5.578125 -10.191406 5.546875 -9.953125 L 8.6875 -9.953125 C 8.820312 -10.921875 8.972656 -11.894531 9.140625 -12.875 C 9.304688 -13.851562 9.488281 -14.820312 9.6875 -15.78125 Z M 9.6875 -15.78125 "/></g></g><g style="fill:#000000;fill-opacity:1;"><g transform="translate(144.816036, 111.774699)"><path style="stroke:none" d="M 9.421875 -4.765625 C 9.847656 -4.742188 10.191406 -4.613281 10.453125 -4.375 C 10.722656 -4.132812 10.898438 -3.84375 10.984375 -3.5 C 11.066406 -3.164062 11.066406 -2.832031 10.984375 -2.5 C 10.898438 -2.175781 10.722656 -1.90625 10.453125 -1.6875 C 10.191406 -1.46875 9.847656 -1.363281 9.421875 -1.375 C 8.390625 -1.414062 7.363281 -1.410156 6.34375 -1.359375 C 5.320312 -1.304688 4.300781 -1.195312 3.28125 -1.03125 C 2.957031 -0.988281 2.625 -1.023438 2.28125 -1.140625 C 1.9375 -1.253906 1.644531 -1.4375 1.40625 -1.6875 C 1.175781 -1.945312 1.09375 -2.28125 1.15625 -2.6875 C 1.40625 -4.757812 1.6875 -6.832031 2 -8.90625 C 2.3125 -10.988281 2.644531 -13.070312 3 -15.15625 C 3.050781 -15.40625 3.144531 -15.625 3.28125 -15.8125 C 3.394531 -16.019531 3.5625 -16.191406 3.78125 -16.328125 C 4.007812 -16.472656 4.289062 -16.554688 4.625 -16.578125 C 6.25 -16.617188 7.875 -16.585938 9.5 -16.484375 C 9.9375 -16.453125 10.285156 -16.3125 10.546875 -16.0625 C 10.816406 -15.8125 10.992188 -15.515625 11.078125 -15.171875 C 11.160156 -14.835938 11.160156 -14.503906 11.078125 -14.171875 C 10.992188 -13.847656 10.816406 -13.578125 10.546875 -13.359375 C 10.285156 -13.148438 9.9375 -13.0625 9.5 -13.09375 C 8.382812 -13.164062 7.25 -13.203125 6.09375 -13.203125 C 6.019531 -12.765625 5.941406 -12.328125 5.859375 -11.890625 C 5.785156 -11.460938 5.722656 -11.03125 5.671875 -10.59375 C 6.285156 -10.570312 6.878906 -10.53125 7.453125 -10.46875 C 7.898438 -10.425781 8.289062 -10.257812 8.625 -9.96875 C 8.96875 -9.675781 9.140625 -9.28125 9.140625 -8.78125 C 9.140625 -8.5 9.0625 -8.222656 8.90625 -7.953125 C 8.75 -7.679688 8.539062 -7.460938 8.28125 -7.296875 C 8.03125 -7.128906 7.753906 -7.0625 7.453125 -7.09375 C 6.679688 -7.164062 5.910156 -7.203125 5.140625 -7.203125 C 5.085938 -6.773438 5.03125 -6.34375 4.96875 -5.90625 C 4.90625 -5.476562 4.84375 -5.050781 4.78125 -4.625 C 5.550781 -4.695312 6.316406 -4.742188 7.078125 -4.765625 C 7.847656 -4.796875 8.628906 -4.796875 9.421875 -4.765625 Z M 9.421875 -4.765625 "/></g></g><g style="fill:#000000;fill-opacity:1;"><g transform="translate(157.072704, 111.774699)"><path style="stroke:none" d=""/></g></g><g style="fill:#000000;fill-opacity:1;"><g transform="translate(163.934633, 111.774699)"><path style="stroke:none" d="M 11.078125 -13.4375 C 11.097656 -12.570312 11.109375 -11.632812 11.109375 -10.625 C 11.109375 -9.625 11.046875 -8.617188 10.921875 -7.609375 C 10.804688 -6.597656 10.582031 -5.644531 10.25 -4.75 C 9.914062 -3.851562 9.4375 -3.082031 8.8125 -2.4375 C 8.15625 -1.769531 7.453125 -1.347656 6.703125 -1.171875 C 5.953125 -1.003906 5.210938 -1.039062 4.484375 -1.28125 C 3.753906 -1.519531 3.101562 -1.929688 2.53125 -2.515625 C 1.957031 -3.097656 1.523438 -3.8125 1.234375 -4.65625 C 1.085938 -5.09375 1.078125 -5.472656 1.203125 -5.796875 C 1.335938 -6.128906 1.550781 -6.382812 1.84375 -6.5625 C 2.132812 -6.75 2.457031 -6.84375 2.8125 -6.84375 C 3.175781 -6.851562 3.515625 -6.757812 3.828125 -6.5625 C 4.140625 -6.375 4.363281 -6.0625 4.5 -5.625 C 4.632812 -5.226562 4.875 -4.953125 5.21875 -4.796875 C 5.570312 -4.640625 5.925781 -4.675781 6.28125 -4.90625 C 6.5625 -5.082031 6.769531 -5.351562 6.90625 -5.71875 C 7.039062 -6.09375 7.144531 -6.445312 7.21875 -6.78125 C 7.488281 -7.863281 7.644531 -8.960938 7.6875 -10.078125 C 7.726562 -11.203125 7.734375 -12.320312 7.703125 -13.4375 C 7.703125 -13.90625 7.8125 -14.273438 8.03125 -14.546875 C 8.257812 -14.828125 8.539062 -15.015625 8.875 -15.109375 C 9.207031 -15.210938 9.539062 -15.210938 9.875 -15.109375 C 10.21875 -15.015625 10.503906 -14.828125 10.734375 -14.546875 C 10.960938 -14.273438 11.078125 -13.90625 11.078125 -13.4375 Z M 11.078125 -13.4375 "/></g></g><g style="fill:#000000;fill-opacity:1;"><g transform="translate(176.191302, 111.774699)"><path style="stroke:none" d="M 12.546875 -13.796875 C 12.910156 -13.210938 13.160156 -12.550781 13.296875 -11.8125 C 13.429688 -11.082031 13.488281 -10.34375 13.46875 -9.59375 C 13.457031 -8.851562 13.398438 -8.160156 13.296875 -7.515625 C 13.148438 -6.523438 12.84375 -5.582031 12.375 -4.6875 C 11.90625 -3.800781 11.28125 -3.035156 10.5 -2.390625 C 9.75 -1.773438 8.875 -1.320312 7.875 -1.03125 C 6.882812 -0.75 5.914062 -0.757812 4.96875 -1.0625 C 4.332031 -1.257812 3.78125 -1.582031 3.3125 -2.03125 C 2.851562 -2.476562 2.460938 -2.992188 2.140625 -3.578125 C 1.828125 -4.160156 1.59375 -4.75 1.4375 -5.34375 C 1.257812 -6.007812 1.15625 -6.773438 1.125 -7.640625 C 1.09375 -8.503906 1.148438 -9.390625 1.296875 -10.296875 C 1.453125 -11.203125 1.703125 -12.046875 2.046875 -12.828125 C 2.398438 -13.609375 2.867188 -14.253906 3.453125 -14.765625 C 4.054688 -15.378906 4.78125 -15.8125 5.625 -16.0625 C 6.46875 -16.320312 7.332031 -16.410156 8.21875 -16.328125 C 9.101562 -16.253906 9.929688 -16 10.703125 -15.5625 C 11.472656 -15.132812 12.085938 -14.546875 12.546875 -13.796875 Z M 8.4375 -5.015625 C 8.957031 -5.492188 9.335938 -6.050781 9.578125 -6.6875 C 9.828125 -7.332031 9.984375 -8.003906 10.046875 -8.703125 C 10.109375 -9.398438 10.09375 -10.082031 10 -10.75 C 9.90625 -11.40625 9.644531 -11.941406 9.21875 -12.359375 C 8.789062 -12.785156 8.222656 -12.992188 7.515625 -12.984375 C 7.128906 -12.984375 6.75 -12.882812 6.375 -12.6875 C 6.007812 -12.488281 5.707031 -12.234375 5.46875 -11.921875 C 5.195312 -11.546875 5 -11.09375 4.875 -10.5625 C 4.757812 -10.039062 4.671875 -9.550781 4.609375 -9.09375 C 4.472656 -8.09375 4.523438 -7.101562 4.765625 -6.125 C 4.835938 -5.832031 4.9375 -5.539062 5.0625 -5.25 C 5.195312 -4.96875 5.382812 -4.738281 5.625 -4.5625 C 6.007812 -4.269531 6.453125 -4.164062 6.953125 -4.25 C 7.460938 -4.332031 7.90625 -4.535156 8.28125 -4.859375 C 8.332031 -4.898438 8.382812 -4.953125 8.4375 -5.015625 Z M 8.4375 -5.015625 "/></g></g><g style="fill:#000000;fill-opacity:1;"><g transform="translate(190.79547, 111.774699)"><path style="stroke:none" d="M 9.125 -15.4375 C 9.164062 -15.875 9.316406 -16.203125 9.578125 -16.421875 C 9.847656 -16.640625 10.148438 -16.765625 10.484375 -16.796875 C 10.828125 -16.828125 11.160156 -16.765625 11.484375 -16.609375 C 11.804688 -16.460938 12.0625 -16.238281 12.25 -15.9375 C 12.4375 -15.632812 12.5 -15.273438 12.4375 -14.859375 C 12.320312 -13.878906 12.207031 -12.84375 12.09375 -11.75 C 11.988281 -10.65625 11.832031 -9.554688 11.625 -8.453125 C 11.425781 -7.359375 11.132812 -6.316406 10.75 -5.328125 C 10.375 -4.335938 9.851562 -3.445312 9.1875 -2.65625 C 8.53125 -1.863281 7.679688 -1.226562 6.640625 -0.75 C 6.242188 -0.5625 5.882812 -0.519531 5.5625 -0.625 C 5.238281 -0.738281 4.976562 -0.929688 4.78125 -1.203125 C 4.59375 -1.484375 4.476562 -1.800781 4.4375 -2.15625 C 4.394531 -2.507812 4.453125 -2.847656 4.609375 -3.171875 C 4.773438 -3.492188 5.050781 -3.738281 5.4375 -3.90625 C 5.945312 -4.144531 6.363281 -4.46875 6.6875 -4.875 C 7.019531 -5.28125 7.28125 -5.734375 7.46875 -6.234375 C 6.851562 -6.023438 6.222656 -5.921875 5.578125 -5.921875 C 4.941406 -5.929688 4.316406 -6.09375 3.703125 -6.40625 C 2.890625 -6.8125 2.28125 -7.382812 1.875 -8.125 C 1.476562 -8.863281 1.242188 -9.671875 1.171875 -10.546875 C 1.097656 -11.429688 1.140625 -12.3125 1.296875 -13.1875 C 1.453125 -14.070312 1.691406 -14.867188 2.015625 -15.578125 C 2.179688 -15.984375 2.421875 -16.257812 2.734375 -16.40625 C 3.046875 -16.550781 3.367188 -16.59375 3.703125 -16.53125 C 4.046875 -16.46875 4.351562 -16.320312 4.625 -16.09375 C 4.894531 -15.875 5.078125 -15.597656 5.171875 -15.265625 C 5.273438 -14.929688 5.242188 -14.5625 5.078125 -14.15625 C 4.960938 -13.894531 4.84375 -13.546875 4.71875 -13.109375 C 4.59375 -12.679688 4.503906 -12.222656 4.453125 -11.734375 C 4.398438 -11.253906 4.421875 -10.8125 4.515625 -10.40625 C 4.609375 -10 4.816406 -9.691406 5.140625 -9.484375 C 5.441406 -9.273438 5.769531 -9.207031 6.125 -9.28125 C 6.476562 -9.351562 6.816406 -9.515625 7.140625 -9.765625 C 7.460938 -10.015625 7.753906 -10.296875 8.015625 -10.609375 C 8.273438 -10.921875 8.476562 -11.207031 8.625 -11.46875 C 8.71875 -12.132812 8.800781 -12.796875 8.875 -13.453125 C 8.945312 -14.117188 9.03125 -14.78125 9.125 -15.4375 Z M 9.125 -15.4375 "/></g></g><g style="fill:#000000;fill-opacity:1;"><g transform="translate(204.383892, 111.774699)"><path style="stroke:none" d=""/></g></g><g style="fill:#000000;fill-opacity:1;"><g transform="translate(211.245821, 111.774699)"><path style="stroke:none" d="M 12.546875 -14.375 C 12.910156 -13.789062 13.160156 -13.132812 13.296875 -12.40625 C 13.429688 -11.675781 13.488281 -10.9375 13.46875 -10.1875 C 13.457031 -9.445312 13.398438 -8.753906 13.296875 -8.109375 C 13.148438 -7.109375 12.84375 -6.164062 12.375 -5.28125 C 11.90625 -4.394531 11.28125 -3.628906 10.5 -2.984375 C 9.75 -2.359375 8.875 -1.90625 7.875 -1.625 C 6.882812 -1.34375 5.914062 -1.347656 4.96875 -1.640625 C 4.332031 -1.835938 3.78125 -2.160156 3.3125 -2.609375 C 2.851562 -3.066406 2.460938 -3.582031 2.140625 -4.15625 C 1.828125 -4.738281 1.59375 -5.332031 1.4375 -5.9375 C 1.257812 -6.601562 1.15625 -7.367188 1.125 -8.234375 C 1.09375 -9.097656 1.148438 -9.976562 1.296875 -10.875 C 1.453125 -11.78125 1.703125 -12.625 2.046875 -13.40625 C 2.398438 -14.1875 2.867188 -14.835938 3.453125 -15.359375 C 4.054688 -15.972656 4.78125 -16.40625 5.625 -16.65625 C 6.46875 -16.914062 7.332031 -17.003906 8.21875 -16.921875 C 9.101562 -16.835938 9.929688 -16.582031 10.703125 -16.15625 C 11.472656 -15.726562 12.085938 -15.132812 12.546875 -14.375 Z M 8.4375 -5.59375 C 8.957031 -6.082031 9.335938 -6.644531 9.578125 -7.28125 C 9.828125 -7.914062 9.984375 -8.582031 10.046875 -9.28125 C 10.109375 -9.988281 10.09375 -10.671875 10 -11.328125 C 9.90625 -11.992188 9.644531 -12.535156 9.21875 -12.953125 C 8.789062 -13.378906 8.222656 -13.582031 7.515625 -13.5625 C 7.128906 -13.5625 6.75 -13.460938 6.375 -13.265625 C 6.007812 -13.078125 5.707031 -12.828125 5.46875 -12.515625 C 5.195312 -12.128906 5 -11.671875 4.875 -11.140625 C 4.757812 -10.617188 4.671875 -10.132812 4.609375 -9.6875 C 4.472656 -8.675781 4.523438 -7.679688 4.765625 -6.703125 C 4.835938 -6.421875 4.9375 -6.132812 5.0625 -5.84375 C 5.195312 -5.5625 5.382812 -5.328125 5.625 -5.140625 C 6.007812 -4.859375 6.453125 -4.757812 6.953125 -4.84375 C 7.460938 -4.925781 7.90625 -5.125 8.28125 -5.4375 C 8.332031 -5.488281 8.382812 -5.539062 8.4375 -5.59375 Z M 8.4375 -5.59375 "/></g></g><g style="fill:#000000;fill-opacity:1;"><g transform="translate(225.872562, 111.774699)"><path style="stroke:none" d="M 10.203125 -15.671875 C 10.640625 -15.734375 11.015625 -15.671875 11.328125 -15.484375 C 11.648438 -15.304688 11.894531 -15.0625 12.0625 -14.75 C 12.238281 -14.445312 12.328125 -14.125 12.328125 -13.78125 C 12.335938 -13.445312 12.242188 -13.148438 12.046875 -12.890625 C 11.859375 -12.640625 11.546875 -12.472656 11.109375 -12.390625 C 10.335938 -12.273438 9.566406 -12.15625 8.796875 -12.03125 C 8.035156 -11.914062 7.269531 -11.796875 6.5 -11.671875 C 6.488281 -11.671875 6.425781 -11.660156 6.3125 -11.640625 C 6.195312 -11.617188 6.070312 -11.597656 5.9375 -11.578125 C 5.9375 -11.472656 5.929688 -11.398438 5.921875 -11.359375 C 5.941406 -11.015625 5.914062 -10.648438 5.84375 -10.265625 C 5.769531 -9.878906 5.710938 -9.515625 5.671875 -9.171875 C 5.671875 -9.109375 5.664062 -9.050781 5.65625 -9 C 5.644531 -8.945312 5.640625 -8.894531 5.640625 -8.84375 C 6.804688 -9.03125 7.957031 -9.128906 9.09375 -9.140625 C 9.53125 -9.140625 9.878906 -9.03125 10.140625 -8.8125 C 10.410156 -8.59375 10.585938 -8.3125 10.671875 -7.96875 C 10.753906 -7.632812 10.753906 -7.296875 10.671875 -6.953125 C 10.585938 -6.617188 10.410156 -6.335938 10.140625 -6.109375 C 9.878906 -5.890625 9.53125 -5.769531 9.09375 -5.75 C 7.789062 -5.738281 6.488281 -5.597656 5.1875 -5.328125 C 5.070312 -4.441406 4.945312 -3.550781 4.8125 -2.65625 C 4.6875 -1.757812 4.554688 -0.867188 4.421875 0.015625 C 4.347656 0.441406 4.179688 0.75 3.921875 0.9375 C 3.671875 1.132812 3.375 1.234375 3.03125 1.234375 C 2.695312 1.234375 2.367188 1.144531 2.046875 0.96875 C 1.734375 0.789062 1.488281 0.539062 1.3125 0.21875 C 1.144531 -0.09375 1.09375 -0.457031 1.15625 -0.875 C 1.457031 -2.757812 1.722656 -4.640625 1.953125 -6.515625 C 2.179688 -8.398438 2.40625 -10.285156 2.625 -12.171875 C 2.707031 -12.984375 2.9375 -13.597656 3.3125 -14.015625 C 3.695312 -14.441406 4.296875 -14.722656 5.109375 -14.859375 C 5.941406 -14.992188 6.785156 -15.128906 7.640625 -15.265625 C 8.503906 -15.398438 9.359375 -15.535156 10.203125 -15.671875 Z M 10.203125 -15.671875 "/></g></g><g style="fill:#000000;fill-opacity:1;"><g transform="translate(239.325548, 111.774699)"><path style="stroke:none" d=""/></g></g><g style="fill:#000000;fill-opacity:1;"><g transform="translate(246.187477, 111.774699)"><path style="stroke:none" d="M 9.953125 -5.625 C 10.390625 -5.65625 10.734375 -5.566406 10.984375 -5.359375 C 11.242188 -5.160156 11.421875 -4.894531 11.515625 -4.5625 C 11.609375 -4.226562 11.609375 -3.890625 11.515625 -3.546875 C 11.421875 -3.203125 11.242188 -2.90625 10.984375 -2.65625 C 10.722656 -2.40625 10.378906 -2.265625 9.953125 -2.234375 C 8.804688 -2.160156 7.679688 -2.015625 6.578125 -1.796875 C 5.472656 -1.585938 4.375 -1.328125 3.28125 -1.015625 C 2.957031 -0.921875 2.625 -0.9375 2.28125 -1.0625 C 1.9375 -1.195312 1.648438 -1.398438 1.421875 -1.671875 C 1.191406 -1.953125 1.09375 -2.285156 1.125 -2.671875 C 1.3125 -4.429688 1.488281 -6.191406 1.65625 -7.953125 C 1.832031 -9.710938 2.003906 -11.472656 2.171875 -13.234375 C 2.210938 -13.648438 2.359375 -13.988281 2.609375 -14.25 C 2.867188 -14.519531 3.171875 -14.695312 3.515625 -14.78125 C 3.867188 -14.863281 4.207031 -14.863281 4.53125 -14.78125 C 4.851562 -14.695312 5.113281 -14.523438 5.3125 -14.265625 C 5.519531 -14.015625 5.597656 -13.671875 5.546875 -13.234375 C 5.410156 -11.828125 5.273438 -10.425781 5.140625 -9.03125 C 5.003906 -7.644531 4.867188 -6.257812 4.734375 -4.875 C 6.441406 -5.238281 8.179688 -5.488281 9.953125 -5.625 Z M 9.953125 -5.625 "/></g></g><g style="fill:#000000;fill-opacity:1;"><g transform="translate(258.895588, 111.774699)"><path style="stroke:none" d="M 9.421875 -4.765625 C 9.847656 -4.742188 10.191406 -4.613281 10.453125 -4.375 C 10.722656 -4.132812 10.898438 -3.84375 10.984375 -3.5 C 11.066406 -3.164062 11.066406 -2.832031 10.984375 -2.5 C 10.898438 -2.175781 10.722656 -1.90625 10.453125 -1.6875 C 10.191406 -1.46875 9.847656 -1.363281 9.421875 -1.375 C 8.390625 -1.414062 7.363281 -1.410156 6.34375 -1.359375 C 5.320312 -1.304688 4.300781 -1.195312 3.28125 -1.03125 C 2.957031 -0.988281 2.625 -1.023438 2.28125 -1.140625 C 1.9375 -1.253906 1.644531 -1.4375 1.40625 -1.6875 C 1.175781 -1.945312 1.09375 -2.28125 1.15625 -2.6875 C 1.40625 -4.757812 1.6875 -6.832031 2 -8.90625 C 2.3125 -10.988281 2.644531 -13.070312 3 -15.15625 C 3.050781 -15.40625 3.144531 -15.625 3.28125 -15.8125 C 3.394531 -16.019531 3.5625 -16.191406 3.78125 -16.328125 C 4.007812 -16.472656 4.289062 -16.554688 4.625 -16.578125 C 6.25 -16.617188 7.875 -16.585938 9.5 -16.484375 C 9.9375 -16.453125 10.285156 -16.3125 10.546875 -16.0625 C 10.816406 -15.8125 10.992188 -15.515625 11.078125 -15.171875 C 11.160156 -14.835938 11.160156 -14.503906 11.078125 -14.171875 C 10.992188 -13.847656 10.816406 -13.578125 10.546875 -13.359375 C 10.285156 -13.148438 9.9375 -13.0625 9.5 -13.09375 C 8.382812 -13.164062 7.25 -13.203125 6.09375 -13.203125 C 6.019531 -12.765625 5.941406 -12.328125 5.859375 -11.890625 C 5.785156 -11.460938 5.722656 -11.03125 5.671875 -10.59375 C 6.285156 -10.570312 6.878906 -10.53125 7.453125 -10.46875 C 7.898438 -10.425781 8.289062 -10.257812 8.625 -9.96875 C 8.96875 -9.675781 9.140625 -9.28125 9.140625 -8.78125 C 9.140625 -8.5 9.0625 -8.222656 8.90625 -7.953125 C 8.75 -7.679688 8.539062 -7.460938 8.28125 -7.296875 C 8.03125 -7.128906 7.753906 -7.0625 7.453125 -7.09375 C 6.679688 -7.164062 5.910156 -7.203125 5.140625 -7.203125 C 5.085938 -6.773438 5.03125 -6.34375 4.96875 -5.90625 C 4.90625 -5.476562 4.84375 -5.050781 4.78125 -4.625 C 5.550781 -4.695312 6.316406 -4.742188 7.078125 -4.765625 C 7.847656 -4.796875 8.628906 -4.796875 9.421875 -4.765625 Z M 9.421875 -4.765625 "/></g></g><g style="fill:#000000;fill-opacity:1;"><g transform="translate(271.152256, 111.774699)"><path style="stroke:none" d="M 11.703125 -9.859375 C 11.742188 -8.367188 11.78125 -6.867188 11.8125 -5.359375 C 11.84375 -3.859375 11.878906 -2.359375 11.921875 -0.859375 C 11.929688 -0.421875 11.820312 -0.0703125 11.59375 0.1875 C 11.375 0.457031 11.097656 0.628906 10.765625 0.703125 C 10.429688 0.785156 10.09375 0.785156 9.75 0.703125 C 9.414062 0.628906 9.132812 0.457031 8.90625 0.1875 C 8.675781 -0.0703125 8.550781 -0.421875 8.53125 -0.859375 C 8.519531 -1.304688 8.507812 -1.753906 8.5 -2.203125 C 8.488281 -2.648438 8.476562 -3.097656 8.46875 -3.546875 L 5.078125 -3.6875 C 4.960938 -3.113281 4.847656 -2.539062 4.734375 -1.96875 C 4.628906 -1.40625 4.523438 -0.835938 4.421875 -0.265625 C 4.347656 0.171875 4.175781 0.484375 3.90625 0.671875 C 3.644531 0.867188 3.34375 0.960938 3 0.953125 C 2.65625 0.953125 2.328125 0.863281 2.015625 0.6875 C 1.710938 0.507812 1.472656 0.265625 1.296875 -0.046875 C 1.117188 -0.359375 1.070312 -0.734375 1.15625 -1.171875 C 1.425781 -2.648438 1.726562 -4.109375 2.0625 -5.546875 C 2.40625 -6.992188 2.882812 -8.40625 3.5 -9.78125 C 3.800781 -10.457031 4.179688 -11.1875 4.640625 -11.96875 C 5.109375 -12.75 5.640625 -13.46875 6.234375 -14.125 C 6.835938 -14.78125 7.5 -15.257812 8.21875 -15.5625 C 8.894531 -15.84375 9.441406 -15.890625 9.859375 -15.703125 C 10.285156 -15.523438 10.617188 -15.203125 10.859375 -14.734375 C 11.097656 -14.273438 11.273438 -13.738281 11.390625 -13.125 C 11.503906 -12.519531 11.578125 -11.921875 11.609375 -11.328125 C 11.648438 -10.742188 11.679688 -10.253906 11.703125 -9.859375 Z M 6 -7.015625 C 6.40625 -7.003906 6.804688 -6.988281 7.203125 -6.96875 C 7.597656 -6.957031 7.988281 -6.945312 8.375 -6.9375 C 8.363281 -7.425781 8.351562 -7.914062 8.34375 -8.40625 C 8.332031 -8.894531 8.320312 -9.378906 8.3125 -9.859375 C 8.289062 -10.054688 8.28125 -10.265625 8.28125 -10.484375 C 8.28125 -10.703125 8.28125 -10.925781 8.28125 -11.15625 C 8.03125 -10.851562 7.8125 -10.566406 7.625 -10.296875 C 7.332031 -9.847656 7.0625 -9.378906 6.8125 -8.890625 C 6.5625 -8.398438 6.335938 -7.90625 6.140625 -7.40625 C 6.128906 -7.34375 6.109375 -7.273438 6.078125 -7.203125 C 6.054688 -7.140625 6.03125 -7.078125 6 -7.015625 Z M 6 -7.015625 "/></g></g><g style="fill:#000000;fill-opacity:1;"><g transform="translate(284.198946, 111.774699)"><path style="stroke:none" d="M 12.84375 -2.125 C 13.101562 -1.757812 13.207031 -1.414062 13.15625 -1.09375 C 13.113281 -0.769531 12.972656 -0.488281 12.734375 -0.25 C 12.492188 -0.0078125 12.203125 0.15625 11.859375 0.25 C 11.523438 0.351562 11.179688 0.351562 10.828125 0.25 C 10.472656 0.15625 10.164062 -0.0625 9.90625 -0.40625 C 9.226562 -1.34375 8.472656 -2.203125 7.640625 -2.984375 C 6.804688 -3.765625 5.90625 -4.472656 4.9375 -5.109375 C 4.863281 -4.210938 4.789062 -3.316406 4.71875 -2.421875 C 4.65625 -1.523438 4.585938 -0.632812 4.515625 0.25 C 4.484375 0.6875 4.34375 1.03125 4.09375 1.28125 C 3.84375 1.539062 3.546875 1.710938 3.203125 1.796875 C 2.859375 1.890625 2.523438 1.894531 2.203125 1.8125 C 1.878906 1.726562 1.609375 1.554688 1.390625 1.296875 C 1.179688 1.035156 1.09375 0.6875 1.125 0.25 C 1.257812 -1.394531 1.363281 -3.066406 1.4375 -4.765625 C 1.519531 -6.460938 1.722656 -8.125 2.046875 -9.75 C 2.210938 -10.59375 2.519531 -11.40625 2.96875 -12.1875 C 3.425781 -12.96875 4.003906 -13.613281 4.703125 -14.125 C 5.398438 -14.644531 6.21875 -14.925781 7.15625 -14.96875 C 7.800781 -15 8.410156 -14.878906 8.984375 -14.609375 C 9.566406 -14.335938 10.0625 -13.957031 10.46875 -13.46875 C 10.875 -12.988281 11.148438 -12.445312 11.296875 -11.84375 C 11.441406 -11.25 11.410156 -10.628906 11.203125 -9.984375 C 10.984375 -9.335938 10.632812 -8.726562 10.15625 -8.15625 C 9.6875 -7.582031 9.144531 -7.082031 8.53125 -6.65625 C 10.144531 -5.351562 11.582031 -3.84375 12.84375 -2.125 Z M 6.796875 -9.640625 C 6.890625 -9.734375 7.039062 -9.875 7.25 -10.0625 C 7.457031 -10.25 7.644531 -10.445312 7.8125 -10.65625 C 7.976562 -10.863281 8.046875 -11.03125 8.015625 -11.15625 C 7.953125 -11.46875 7.832031 -11.640625 7.65625 -11.671875 C 7.488281 -11.703125 7.296875 -11.648438 7.078125 -11.515625 C 6.859375 -11.390625 6.644531 -11.21875 6.4375 -11 C 6.226562 -10.78125 6.046875 -10.570312 5.890625 -10.375 C 5.742188 -10.1875 5.644531 -10.046875 5.59375 -9.953125 C 5.476562 -9.609375 5.375 -9.234375 5.28125 -8.828125 C 5.582031 -8.867188 5.851562 -8.960938 6.09375 -9.109375 C 6.332031 -9.253906 6.566406 -9.429688 6.796875 -9.640625 Z M 6.796875 -9.640625 "/></g></g><g style="fill:#000000;fill-opacity:1;"><g transform="translate(298.487098, 111.774699)"><path style="stroke:none" d="M 9.9375 -13.6875 C 10 -14.101562 10.15625 -14.410156 10.40625 -14.609375 C 10.664062 -14.804688 10.960938 -14.90625 11.296875 -14.90625 C 11.640625 -14.90625 11.96875 -14.8125 12.28125 -14.625 C 12.59375 -14.445312 12.835938 -14.195312 13.015625 -13.875 C 13.203125 -13.5625 13.265625 -13.195312 13.203125 -12.78125 C 12.585938 -8.625 11.820312 -4.5 10.90625 -0.40625 C 10.832031 -0.0703125 10.660156 0.195312 10.390625 0.40625 C 10.128906 0.613281 9.828125 0.742188 9.484375 0.796875 C 9.140625 0.847656 8.8125 0.8125 8.5 0.6875 C 8.1875 0.5625 7.957031 0.332031 7.8125 0 C 7.46875 -0.820312 7.113281 -1.644531 6.75 -2.46875 C 6.382812 -3.289062 6.023438 -4.109375 5.671875 -4.921875 C 5.441406 -3.941406 5.222656 -2.957031 5.015625 -1.96875 C 4.804688 -0.988281 4.609375 -0.0078125 4.421875 0.96875 C 4.347656 1.40625 4.175781 1.722656 3.90625 1.921875 C 3.632812 2.117188 3.328125 2.210938 2.984375 2.203125 C 2.648438 2.191406 2.328125 2.097656 2.015625 1.921875 C 1.710938 1.753906 1.472656 1.507812 1.296875 1.1875 C 1.117188 0.875 1.078125 0.5 1.171875 0.0625 C 1.835938 -3.519531 2.648438 -7.070312 3.609375 -10.59375 C 3.703125 -10.90625 3.882812 -11.164062 4.15625 -11.375 C 4.425781 -11.59375 4.726562 -11.726562 5.0625 -11.78125 C 5.40625 -11.84375 5.726562 -11.8125 6.03125 -11.6875 C 6.332031 -11.570312 6.554688 -11.34375 6.703125 -11 L 8.6875 -6.40625 C 8.925781 -7.613281 9.144531 -8.820312 9.34375 -10.03125 C 9.550781 -11.25 9.75 -12.46875 9.9375 -13.6875 Z M 9.9375 -13.6875 "/></g></g><g style="fill:#000000;fill-opacity:1;"><g transform="translate(312.842967, 111.774699)"><path style="stroke:none" d="M 2.140625 -13.90625 C 2.191406 -14.332031 2.34375 -14.671875 2.59375 -14.921875 C 2.851562 -15.179688 3.15625 -15.351562 3.5 -15.4375 C 3.84375 -15.53125 4.179688 -15.535156 4.515625 -15.453125 C 4.847656 -15.367188 5.109375 -15.195312 5.296875 -14.9375 C 5.492188 -14.675781 5.570312 -14.332031 5.53125 -13.90625 C 5.09375 -9.832031 4.753906 -5.742188 4.515625 -1.640625 C 4.484375 -1.210938 4.347656 -0.863281 4.109375 -0.59375 C 3.867188 -0.332031 3.578125 -0.160156 3.234375 -0.078125 C 2.898438 0.00390625 2.566406 0.00390625 2.234375 -0.078125 C 1.898438 -0.160156 1.625 -0.332031 1.40625 -0.59375 C 1.1875 -0.863281 1.09375 -1.210938 1.125 -1.640625 C 1.363281 -5.742188 1.703125 -9.832031 2.140625 -13.90625 Z M 2.140625 -13.90625 "/></g></g><g style="fill:#000000;fill-opacity:1;"><g transform="translate(319.524315, 111.774699)"><path style="stroke:none" d="M 9.9375 -13.6875 C 10 -14.101562 10.15625 -14.410156 10.40625 -14.609375 C 10.664062 -14.804688 10.960938 -14.90625 11.296875 -14.90625 C 11.640625 -14.90625 11.96875 -14.8125 12.28125 -14.625 C 12.59375 -14.445312 12.835938 -14.195312 13.015625 -13.875 C 13.203125 -13.5625 13.265625 -13.195312 13.203125 -12.78125 C 12.585938 -8.625 11.820312 -4.5 10.90625 -0.40625 C 10.832031 -0.0703125 10.660156 0.195312 10.390625 0.40625 C 10.128906 0.613281 9.828125 0.742188 9.484375 0.796875 C 9.140625 0.847656 8.8125 0.8125 8.5 0.6875 C 8.1875 0.5625 7.957031 0.332031 7.8125 0 C 7.46875 -0.820312 7.113281 -1.644531 6.75 -2.46875 C 6.382812 -3.289062 6.023438 -4.109375 5.671875 -4.921875 C 5.441406 -3.941406 5.222656 -2.957031 5.015625 -1.96875 C 4.804688 -0.988281 4.609375 -0.0078125 4.421875 0.96875 C 4.347656 1.40625 4.175781 1.722656 3.90625 1.921875 C 3.632812 2.117188 3.328125 2.210938 2.984375 2.203125 C 2.648438 2.191406 2.328125 2.097656 2.015625 1.921875 C 1.710938 1.753906 1.472656 1.507812 1.296875 1.1875 C 1.117188 0.875 1.078125 0.5 1.171875 0.0625 C 1.835938 -3.519531 2.648438 -7.070312 3.609375 -10.59375 C 3.703125 -10.90625 3.882812 -11.164062 4.15625 -11.375 C 4.425781 -11.59375 4.726562 -11.726562 5.0625 -11.78125 C 5.40625 -11.84375 5.726562 -11.8125 6.03125 -11.6875 C 6.332031 -11.570312 6.554688 -11.34375 6.703125 -11 L 8.6875 -6.40625 C 8.925781 -7.613281 9.144531 -8.820312 9.34375 -10.03125 C 9.550781 -11.25 9.75 -12.46875 9.9375 -13.6875 Z M 9.9375 -13.6875 "/></g></g><g style="fill:#000000;fill-opacity:1;"><g transform="translate(333.880185, 111.774699)"><path style="stroke:none" d="M 10.25 -9.421875 C 11.257812 -9.429688 12.035156 -9.1875 12.578125 -8.6875 C 13.117188 -8.195312 13.367188 -7.429688 13.328125 -6.390625 C 13.296875 -5.484375 13.0625 -4.617188 12.625 -3.796875 C 12.195312 -2.984375 11.613281 -2.320312 10.875 -1.8125 C 10.0625 -1.238281 9.175781 -0.9375 8.21875 -0.90625 C 7.269531 -0.875 6.335938 -0.992188 5.421875 -1.265625 C 4.304688 -1.578125 3.414062 -2.066406 2.75 -2.734375 C 2.09375 -3.410156 1.640625 -4.195312 1.390625 -5.09375 C 1.140625 -6 1.0625 -6.945312 1.15625 -7.9375 C 1.257812 -8.9375 1.507812 -9.925781 1.90625 -10.90625 C 2.300781 -11.882812 2.816406 -12.785156 3.453125 -13.609375 C 4.085938 -14.441406 4.8125 -15.140625 5.625 -15.703125 C 6.445312 -16.265625 7.335938 -16.628906 8.296875 -16.796875 C 9.253906 -16.960938 10.238281 -16.863281 11.25 -16.5 C 11.664062 -16.363281 11.960938 -16.140625 12.140625 -15.828125 C 12.328125 -15.523438 12.414062 -15.195312 12.40625 -14.84375 C 12.394531 -14.488281 12.304688 -14.164062 12.140625 -13.875 C 11.984375 -13.582031 11.75 -13.367188 11.4375 -13.234375 C 11.125 -13.097656 10.765625 -13.101562 10.359375 -13.25 C 9.640625 -13.488281 8.941406 -13.484375 8.265625 -13.234375 C 7.597656 -12.992188 6.988281 -12.578125 6.4375 -11.984375 C 5.894531 -11.398438 5.445312 -10.734375 5.09375 -9.984375 C 4.75 -9.242188 4.539062 -8.492188 4.46875 -7.734375 C 4.394531 -6.972656 4.5 -6.300781 4.78125 -5.71875 C 4.945312 -5.363281 5.210938 -5.066406 5.578125 -4.828125 C 5.953125 -4.585938 6.367188 -4.414062 6.828125 -4.3125 C 7.285156 -4.21875 7.726562 -4.203125 8.15625 -4.265625 C 8.59375 -4.335938 8.953125 -4.519531 9.234375 -4.8125 C 9.441406 -5.03125 9.613281 -5.300781 9.75 -5.625 C 9.769531 -5.664062 9.78125 -5.71875 9.78125 -5.78125 C 9.789062 -5.851562 9.804688 -5.925781 9.828125 -6 C 9.804688 -6 9.785156 -6 9.765625 -6 C 9.742188 -6 9.722656 -6 9.703125 -6 C 9.648438 -6 9.59375 -6 9.53125 -6 C 9.476562 -6 9.425781 -6 9.375 -6 C 9.113281 -5.726562 8.78125 -5.554688 8.375 -5.484375 C 7.96875 -5.421875 7.570312 -5.476562 7.1875 -5.65625 C 6.800781 -5.832031 6.523438 -6.148438 6.359375 -6.609375 C 6.140625 -7.265625 6.132812 -7.78125 6.34375 -8.15625 C 6.550781 -8.53125 6.882812 -8.800781 7.34375 -8.96875 C 7.800781 -9.144531 8.296875 -9.257812 8.828125 -9.3125 C 9.367188 -9.363281 9.84375 -9.398438 10.25 -9.421875 Z M 10.25 -9.421875 "/></g></g><g style="fill:#000000;fill-opacity:1;"><g transform="translate(135.666279, 136.216879)"><path style="stroke:none" d="M 6.390625 0 L 5.046875 -2.5625 L 3.21875 -2.5625 L 3.21875 0 L 0.90625 0 L 0.90625 -9.09375 L 4.984375 -9.09375 C 6.179688 -9.09375 7.109375 -8.816406 7.765625 -8.265625 C 8.429688 -7.722656 8.765625 -6.941406 8.765625 -5.921875 C 8.765625 -4.523438 8.210938 -3.550781 7.109375 -3 L 9.015625 0 Z M 3.21875 -4.375 L 4.984375 -4.375 C 5.484375 -4.375 5.867188 -4.5 6.140625 -4.75 C 6.421875 -5.007812 6.5625 -5.375 6.5625 -5.84375 C 6.5625 -6.3125 6.421875 -6.664062 6.140625 -6.90625 C 5.867188 -7.15625 5.484375 -7.28125 4.984375 -7.28125 L 3.21875 -7.28125 Z M 3.21875 -4.375 "/></g></g><g style="fill:#000000;fill-opacity:1;"><g transform="translate(149.46854, 136.216879)"><path style="stroke:none" d="M 6.953125 -1.671875 L 2.984375 -1.671875 L 2.3125 0 L -0.0625 0 L 3.859375 -9.09375 L 6.234375 -9.09375 L 10.078125 0 L 7.609375 0 Z M 6.28125 -3.4375 L 4.984375 -6.796875 L 3.65625 -3.4375 Z M 6.28125 -3.4375 "/></g></g><g style="fill:#000000;fill-opacity:1;"><g transform="translate(163.868618, 136.216879)"><path style="stroke:none" d="M 10.90625 0 L 8.859375 0 L 8.859375 -5.921875 L 6.671875 -0.90625 L 5.15625 -0.90625 L 2.984375 -5.921875 L 2.984375 0 L 0.90625 0 L 0.90625 -9.109375 L 3.4375 -9.109375 L 5.921875 -3.6875 L 8.390625 -9.109375 L 10.90625 -9.109375 Z M 10.90625 0 "/></g></g><g style="fill:#000000;fill-opacity:1;"><g transform="translate(180.088145, 136.216879)"><path style="stroke:none" d="M 8.3125 -7.625 L 3.453125 -1.828125 L 8.390625 -1.828125 L 8.390625 0 L 0.359375 0 L 0.359375 -1.484375 L 5.234375 -7.265625 L 0.53125 -7.265625 L 0.53125 -9.09375 L 8.3125 -9.09375 Z M 8.3125 -7.625 "/></g></g><g style="fill:#000000;fill-opacity:1;"><g transform="translate(193.2536, 136.216879)"><path style="stroke:none" d="M 3.21875 0 L 0.90625 0 L 0.90625 -9.09375 L 3.21875 -9.09375 Z M 3.21875 0 "/></g></g><g style="fill:#000000;fill-opacity:1;"><g transform="translate(201.779482, 136.216879)"><path style="stroke:none" d=""/></g></g><g style="fill:#000000;fill-opacity:1;"><g transform="translate(209.1877, 136.216879)"><path style="stroke:none" d="M 6.953125 -1.671875 L 2.984375 -1.671875 L 2.3125 0 L -0.0625 0 L 3.859375 -9.09375 L 6.234375 -9.09375 L 10.078125 0 L 7.609375 0 Z M 6.28125 -3.4375 L 4.984375 -6.796875 L 3.65625 -3.4375 Z M 6.28125 -3.4375 "/></g></g><g style="fill:#000000;fill-opacity:1;"><g transform="translate(223.587778, 136.216879)"><path style="stroke:none" d="M 0.90625 -9.09375 L 5.21875 -9.09375 C 6.238281 -9.09375 7.046875 -8.882812 7.640625 -8.46875 C 8.242188 -8.0625 8.546875 -7.515625 8.546875 -6.828125 C 8.546875 -6.347656 8.40625 -5.925781 8.125 -5.5625 C 7.851562 -5.207031 7.476562 -4.960938 7 -4.828125 C 7.570312 -4.710938 8.023438 -4.445312 8.359375 -4.03125 C 8.691406 -3.613281 8.859375 -3.109375 8.859375 -2.515625 C 8.859375 -1.742188 8.546875 -1.128906 7.921875 -0.671875 C 7.296875 -0.222656 6.445312 0 5.375 0 L 0.90625 0 Z M 3.21875 -7.328125 L 3.21875 -5.453125 L 5.078125 -5.453125 C 5.421875 -5.453125 5.691406 -5.535156 5.890625 -5.703125 C 6.085938 -5.878906 6.1875 -6.113281 6.1875 -6.40625 C 6.1875 -6.695312 6.085938 -6.921875 5.890625 -7.078125 C 5.691406 -7.242188 5.421875 -7.328125 5.078125 -7.328125 Z M 3.21875 -3.796875 L 3.21875 -1.78125 L 5.078125 -1.78125 C 5.515625 -1.78125 5.851562 -1.867188 6.09375 -2.046875 C 6.34375 -2.234375 6.46875 -2.488281 6.46875 -2.8125 C 6.46875 -3.113281 6.34375 -3.351562 6.09375 -3.53125 C 5.851562 -3.707031 5.515625 -3.796875 5.078125 -3.796875 Z M 3.21875 -3.796875 "/></g></g><g style="fill:#000000;fill-opacity:1;"><g transform="translate(237.27308, 136.216879)"><path style="stroke:none" d="M 9.09375 -9.09375 L 9.09375 -3.828125 C 9.09375 -2.617188 8.71875 -1.660156 7.96875 -0.953125 C 7.226562 -0.242188 6.222656 0.109375 4.953125 0.109375 C 3.671875 0.109375 2.648438 -0.242188 1.890625 -0.953125 C 1.128906 -1.660156 0.75 -2.617188 0.75 -3.828125 L 0.75 -9.09375 L 3.0625 -9.09375 L 3.0625 -3.828125 C 3.0625 -3.210938 3.238281 -2.722656 3.59375 -2.359375 C 3.945312 -2.003906 4.40625 -1.828125 4.96875 -1.828125 C 5.519531 -1.828125 5.960938 -2.003906 6.296875 -2.359375 C 6.628906 -2.722656 6.796875 -3.210938 6.796875 -3.828125 L 6.796875 -9.09375 Z M 9.09375 -9.09375 "/></g></g><g style="fill:#000000;fill-opacity:1;"><g transform="translate(251.517208, 136.216879)"><path style="stroke:none" d="M 4.40625 -9.203125 C 5.769531 -9.203125 6.96875 -8.863281 8 -8.1875 L 7.125 -6.390625 C 6.644531 -6.660156 6.128906 -6.882812 5.578125 -7.0625 C 5.035156 -7.238281 4.582031 -7.328125 4.21875 -7.328125 C 3.550781 -7.328125 3.21875 -7.109375 3.21875 -6.671875 C 3.21875 -6.378906 3.378906 -6.144531 3.703125 -5.96875 C 4.035156 -5.800781 4.4375 -5.65625 4.90625 -5.53125 C 5.375 -5.40625 5.84375 -5.253906 6.3125 -5.078125 C 6.789062 -4.898438 7.191406 -4.609375 7.515625 -4.203125 C 7.847656 -3.804688 8.015625 -3.304688 8.015625 -2.703125 C 8.015625 -1.828125 7.671875 -1.144531 6.984375 -0.65625 C 6.304688 -0.164062 5.4375 0.078125 4.375 0.078125 C 3.625 0.078125 2.878906 -0.0507812 2.140625 -0.3125 C 1.410156 -0.570312 0.769531 -0.925781 0.21875 -1.375 L 1.125 -3.15625 C 1.582031 -2.757812 2.117188 -2.429688 2.734375 -2.171875 C 3.359375 -1.921875 3.914062 -1.796875 4.40625 -1.796875 C 4.78125 -1.796875 5.070312 -1.863281 5.28125 -2 C 5.488281 -2.132812 5.59375 -2.332031 5.59375 -2.59375 C 5.59375 -2.84375 5.472656 -3.050781 5.234375 -3.21875 C 4.992188 -3.382812 4.695312 -3.507812 4.34375 -3.59375 C 3.988281 -3.675781 3.601562 -3.785156 3.1875 -3.921875 C 2.769531 -4.066406 2.382812 -4.21875 2.03125 -4.375 C 1.675781 -4.539062 1.378906 -4.800781 1.140625 -5.15625 C 0.898438 -5.519531 0.78125 -5.957031 0.78125 -6.46875 C 0.78125 -7.289062 1.109375 -7.953125 1.765625 -8.453125 C 2.429688 -8.953125 3.3125 -9.203125 4.40625 -9.203125 Z M 4.40625 -9.203125 "/></g></g><g style="fill:#000000;fill-opacity:1;"><g transform="translate(264.279784, 136.216879)"><path style="stroke:none" d="M 9.3125 0 L 7 0 L 7 -3.53125 L 3.21875 -3.53125 L 3.21875 0 L 0.90625 0 L 0.90625 -9.09375 L 3.21875 -9.09375 L 3.21875 -5.359375 L 7 -5.359375 L 7 -9.09375 L 9.3125 -9.09375 Z M 9.3125 0 "/></g></g><g style="fill:#000000;fill-opacity:1;"><g transform="translate(278.887801, 136.216879)"><path style="stroke:none" d="M 8.03125 -7.28125 L 3.21875 -7.28125 L 3.21875 -5.46875 L 7.5625 -5.46875 L 7.5625 -3.65625 L 3.21875 -3.65625 L 3.21875 -1.8125 L 8.171875 -1.8125 L 8.171875 0 L 0.90625 0 L 0.90625 -9.09375 L 8.03125 -9.09375 Z M 8.03125 -7.28125 "/></g></g><g style="fill:#000000;fill-opacity:1;"><g transform="translate(292.040266, 136.216879)"><path style="stroke:none" d="M 9.3125 0 L 7 0 L 7 -3.53125 L 3.21875 -3.53125 L 3.21875 0 L 0.90625 0 L 0.90625 -9.09375 L 3.21875 -9.09375 L 3.21875 -5.359375 L 7 -5.359375 L 7 -9.09375 L 9.3125 -9.09375 Z M 9.3125 0 "/></g></g><g style="fill:#000000;fill-opacity:1;"><g transform="translate(306.648282, 136.216879)"><path style="stroke:none" d="M 6.953125 -1.671875 L 2.984375 -1.671875 L 2.3125 0 L -0.0625 0 L 3.859375 -9.09375 L 6.234375 -9.09375 L 10.078125 0 L 7.609375 0 Z M 6.28125 -3.4375 L 4.984375 -6.796875 L 3.65625 -3.4375 Z M 6.28125 -3.4375 "/></g></g><g style="fill:#000000;fill-opacity:1;"><g transform="translate(321.04836, 136.216879)"><path style="stroke:none" d="M 0.90625 -9.09375 L 5.21875 -9.09375 C 6.238281 -9.09375 7.046875 -8.882812 7.640625 -8.46875 C 8.242188 -8.0625 8.546875 -7.515625 8.546875 -6.828125 C 8.546875 -6.347656 8.40625 -5.925781 8.125 -5.5625 C 7.851562 -5.207031 7.476562 -4.960938 7 -4.828125 C 7.570312 -4.710938 8.023438 -4.445312 8.359375 -4.03125 C 8.691406 -3.613281 8.859375 -3.109375 8.859375 -2.515625 C 8.859375 -1.742188 8.546875 -1.128906 7.921875 -0.671875 C 7.296875 -0.222656 6.445312 0 5.375 0 L 0.90625 0 Z M 3.21875 -7.328125 L 3.21875 -5.453125 L 5.078125 -5.453125 C 5.421875 -5.453125 5.691406 -5.535156 5.890625 -5.703125 C 6.085938 -5.878906 6.1875 -6.113281 6.1875 -6.40625 C 6.1875 -6.695312 6.085938 -6.921875 5.890625 -7.078125 C 5.691406 -7.242188 5.421875 -7.328125 5.078125 -7.328125 Z M 3.21875 -3.796875 L 3.21875 -1.78125 L 5.078125 -1.78125 C 5.515625 -1.78125 5.851562 -1.867188 6.09375 -2.046875 C 6.34375 -2.234375 6.46875 -2.488281 6.46875 -2.8125 C 6.46875 -3.113281 6.34375 -3.351562 6.09375 -3.53125 C 5.851562 -3.707031 5.515625 -3.796875 5.078125 -3.796875 Z M 3.21875 -3.796875 "/></g></g></g></svg>